<svg width="175" height="62" viewBox="0 0 175 62" fill="none" xmlns="http://www.w3.org/2000/svg">
<path d="M53.23 9.77012C56.0354 12.5722 58.3269 15.8453 60 19.4401C60.21 19.8901 60.39 20.3501 60.59 20.8101C60.79 21.2701 60.94 21.7401 61.11 22.2001C61.28 22.6601 61.43 23.2001 61.58 23.6301C61.73 24.0601 61.85 24.6301 61.98 25.0701C62.4737 27.0359 62.7719 29.0457 62.87 31.0701C63.0625 35.1568 62.3727 39.2371 60.8473 43.0334C59.3218 46.8296 56.9967 50.2528 54.03 53.0701C52.5505 54.4709 50.9321 55.7173 49.2 56.7901C47.4772 57.8483 45.6552 58.7359 43.76 59.4401C36.1765 62.2072 27.8426 62.1041 20.33 59.1501C19.88 58.9501 19.41 58.7701 18.96 58.5601C18.51 58.3501 18 58.1701 17.59 57.9001C17.18 57.6301 16.7 57.4501 16.27 57.2001C15.84 56.9501 15.4 56.7001 14.98 56.4301C13.283 55.3532 11.6895 54.1212 10.22 52.7501C7.22346 49.9713 4.82627 46.6096 3.17546 42.8713C1.52465 39.1329 0.655046 35.0966 0.619984 31.0101C0.56737 26.9015 1.32867 22.8231 2.85999 19.0101C4.41315 15.1648 6.73418 11.6766 9.68122 8.75883C12.6283 5.84102 16.1394 3.55487 20 2.04012C20.48 1.85012 21 1.70011 21.45 1.53012C21.9 1.36012 22.45 1.23012 22.93 1.08012C23.41 0.930115 23.93 0.850115 24.42 0.730115C24.91 0.610115 25.42 0.540115 25.93 0.450115C27.9357 0.123465 29.9703 0.00949946 32 0.110115C34.0238 0.221433 36.0326 0.522759 38 1.01011L39.44 1.41012C39.92 1.57012 40.44 1.71011 40.87 1.89011C41.3 2.07011 41.81 2.22012 42.27 2.41012C42.73 2.60012 43.19 2.79011 43.64 3.01011C47.2084 4.68355 50.4545 6.97177 53.23 9.77012ZM53.02 9.98011C50.2563 7.22344 46.9259 5.10103 43.26 3.76011C39.6571 2.45264 35.8269 1.88797 32 2.10011C30.116 2.20705 28.2453 2.48147 26.41 2.92012C25.95 3.04012 25.5 3.15012 25.05 3.28012C24.6 3.41012 24.15 3.55012 23.71 3.71012C23.27 3.87012 22.83 4.01011 22.39 4.19011C21.95 4.37011 21.53 4.53011 21.1 4.72011C17.6866 6.22112 14.5886 8.35545 11.97 11.0101C9.35757 13.6558 7.26171 16.7657 5.78999 20.1801C4.32923 23.6176 3.54818 27.3056 3.48999 31.0401C3.40152 38.6653 6.23958 46.0342 11.42 51.6301C14.0402 54.447 17.2129 56.6938 20.74 58.2301C24.2934 59.7644 28.1297 60.5343 32 60.4901C35.8409 60.4168 39.6232 59.5343 43.1 57.9001C46.5415 56.2969 49.6467 54.0537 52.25 51.2901C57.4726 45.7828 60.5547 38.5902 60.94 31.0101C61.1494 27.1662 60.5814 23.3195 59.27 19.7001C57.9107 16.0432 55.7711 12.7263 53 9.98011H53.02Z" fill="#E2C16C"/>
<path d="M21.0601 53.44L36.78 37.72C37.0056 38.8823 37.0728 40.0697 36.9801 41.25C36.9801 42.39 36.9801 43.53 36.9801 44.8C39.1202 44.0592 41.0487 42.8101 42.6 41.16V23.77C38.82 27.55 35.1201 31.26 31.4101 34.96L20.25 46.12C15.16 42.88 11.56 35.12 12.94 27.67C14.74 18 22.8 12.61 29.27 12.03C29.43 13.36 29.27 14.71 29.36 16.03L38.45 6.90005C32.2858 5.20557 25.7059 5.94792 20.0741 8.97326C14.4423 11.9986 10.1906 17.0749 8.20005 23.15C3.86005 36.23 11 49.04 21.0601 53.44Z" fill="#E2C16C"/>
<path d="M26.7 17.3401C24.6049 18.1094 22.7278 19.3756 21.23 21.0301V38.3601L43.69 15.9001C49.25 19.6301 52.92 28.3101 50.47 36.5201C47.84 45.3701 39.67 49.8101 34.68 49.9701C34.33 48.7501 34.68 47.4601 34.48 46.3501L25.66 55.1601C36 58.3601 50.2 53.4401 55.33 39.9501C57.5939 34.1231 57.5709 27.6556 55.2655 21.8449C52.9601 16.0342 48.543 11.3101 42.9 8.62012L27.34 24.1801C26.83 24.0201 26.91 23.6601 26.91 23.3801C26.91 21.8401 26.91 20.3001 26.91 18.7601C26.9774 18.2764 26.9045 17.7836 26.7 17.3401Z" fill="#E2C16C"/>
<path d="M96.43 38.0499V37.3099H97.89V38.0499H100.3V39.7499H100.89V41.0599H100.3V42.7699H97.89V43.2999H100.52V43.6799C101.46 41.6192 102.029 39.4085 102.2 37.1499L103.8 37.4299C103.713 38.1566 103.603 38.8466 103.47 39.4999H107.35V41.0399H106.44C106.421 43.3887 105.903 45.7067 104.92 47.8399C105.633 48.8839 106.548 49.7747 107.61 50.4599L106.61 51.7699C105.613 51.1064 104.74 50.2739 104.03 49.3099C103.366 50.2439 102.556 51.0644 101.63 51.7399L100.87 50.5099L100.06 51.5799C99.2574 51.135 98.4293 50.7376 97.58 50.3899C96.495 50.9557 95.3516 51.4017 94.17 51.7199L93.28 50.5599C94.1755 50.3425 95.0543 50.0618 95.91 49.7199C95.32 49.4999 94.75 49.2999 94.17 49.1399C94.47 48.7099 94.75 48.2699 95.03 47.8499H93.32V46.6399H95.77L96.1 46.0599H93.8V43.2999H96.41V42.7699H94V41.0599H93.42V39.7499H94V38.0499H96.43ZM96.43 44.3399H95.19V45.0199H96.43V44.3399ZM96.43 39.8899V39.1399H95.43V39.8999L96.43 39.8899ZM96.43 40.8899H95.43V41.6299H96.43V40.8899ZM98.81 47.8999H96.65C96.48 48.1699 96.32 48.3999 96.2 48.6199C96.6 48.7299 97.02 48.8499 97.44 49.0099C97.9442 48.7027 98.405 48.3294 98.81 47.8999ZM100.81 50.3599C101.753 49.7117 102.55 48.8738 103.15 47.8999C102.57 46.7401 102.181 45.494 102 44.2099C101.867 44.4711 101.72 44.7248 101.56 44.9699L100.56 43.7299V46.0599H97.68L97.37 46.6399H100.61V47.6399C100.185 48.3633 99.6249 48.9982 98.96 49.5099C99.58 49.7499 100.22 50.0299 100.84 50.3399L100.81 50.3599ZM98.93 39.8999V39.1499H97.93V39.8999H98.93ZM98.93 40.8999H97.93V41.6399H98.93V40.8999ZM99.15 44.3199H97.89V44.9999H99.15V44.3199ZM103.22 43.0399C103.334 44.0917 103.596 45.122 104 46.0999C104.602 44.4726 104.923 42.7548 104.95 41.0199H103.13C102.928 41.797 102.681 42.5616 102.39 43.3099L103.22 43.0399Z" fill="#E2C16C"/>
<path d="M109.13 39.55V37.99H114.26V39.55H112.11C111.941 40.589 111.686 41.6124 111.35 42.61H114V50.35H111.56V51.15H110.1V45.46C109.9 45.8 109.7 46.12 109.48 46.46L108.66 45.12C109.64 43.4039 110.298 41.5229 110.6 39.57L109.13 39.55ZM112.56 48.9V44.01H111.56V48.9H112.56ZM116.11 46.77C115.92 48.41 115.72 49.84 115.49 51.05L114.15 50.57C114.483 49.2159 114.737 47.8436 114.91 46.46L116.11 46.77ZM122.8 44.61C122.8 48.1 122.61 50.13 122.25 50.72C122.004 51.0421 121.678 51.2939 121.304 51.4501C120.93 51.6063 120.522 51.6615 120.12 51.61C119.73 51.61 119.34 51.61 118.94 51.61L118.58 50.2C119.03 50.2 119.45 50.26 119.84 50.26C120.59 50.26 121.04 49.98 121.16 49.42C121.16 49.27 121.21 49.09 121.24 48.88L120.24 49.28C120.1 48.36 119.93 47.48 119.71 46.61L120.8 46.3C121.02 47.13 121.17 47.93 121.3 48.64C121.36 47.99 121.39 47.1 121.39 46H115.11V37.73H122.54V39.08H119.94V40.08H122.25V41.39H119.9V42.39H122.25V43.7H119.9V44.7L122.8 44.61ZM117.8 50.33L116.59 50.49C116.59 48.87 116.53 47.63 116.47 46.74L117.62 46.62C117.71 47.54 117.77 48.78 117.8 50.35V50.33ZM116.56 39.06V40.06H118.41V39.06H116.56ZM116.56 42.34H118.41V41.34H116.56V42.34ZM116.56 44.61H118.41V43.61H116.56V44.61ZM119.56 49.54L118.37 49.7C118.35 48.6721 118.263 47.6466 118.11 46.63L119.23 46.49C119.412 47.504 119.519 48.5302 119.55 49.56L119.56 49.54Z" fill="#E2C16C"/>
<path d="M136.66 43.99V49.38H134.72C135.945 49.6432 137.154 49.9771 138.34 50.38L137.76 51.77C136.176 51.1046 134.532 50.5922 132.85 50.24L133.32 49.36H129.48L130.08 50.15C128.527 50.92 126.864 51.4429 125.15 51.7L124.38 50.37C125.834 50.1852 127.265 49.8501 128.65 49.37H126.3V43.99H136.66ZM138.29 41.99V43.42H124.67V41.96L138.29 41.99ZM133.29 38.1V37.32H134.88V38.1H137.88V39.47H134.88V41.4H128.04V39.44H125.04V38.07H128.04V37.29H129.62V38.07L133.29 38.1ZM130.68 46.1V45.3H127.85V46.1H130.68ZM130.68 47.31H127.85V48.12H130.68V47.31ZM133.29 39.49H129.62V40.19H133.29V39.49ZM132.29 46.1H135.12V45.3H132.29V46.1ZM135.12 47.31H132.29V48.12H135.12V47.31Z" fill="#E2C16C"/>
<path d="M140.82 43.1401L139.87 41.7701C142.34 40.7724 144.565 39.2507 146.39 37.3101H147.69C149.444 39.3078 151.667 40.8372 154.16 41.7601L153.23 43.1201C152.544 42.8275 151.876 42.4936 151.23 42.1201V42.9001H147.89V44.6301H153.24V46.1401H147.89V49.8101H149.23C149.698 48.8349 150.109 47.8332 150.46 46.8101L151.92 47.3501C151.618 48.2075 151.264 49.0458 150.86 49.8601H153.8V51.4001H140.31V49.8301H143.31C143.052 49.0008 142.717 48.1973 142.31 47.4301L143.78 46.8901C144.252 47.8331 144.637 48.8171 144.93 49.8301H146.3V46.1601H140.94V44.6501H146.3V42.9001H142.96V42.0501C142.22 42.4601 141.54 42.8101 140.82 43.1401ZM147 38.8301C146.031 39.8252 144.958 40.7136 143.8 41.4801H150.07C148.931 40.7398 147.899 39.8483 147 38.8301Z" fill="#E2C16C"/>
<path d="M87.0899 20.0799V25.4099C87.1211 26.684 86.8432 27.9467 86.2799 29.0899C85.7714 30.1011 84.9791 30.9421 83.9999 31.5099C82.9192 32.0901 81.7062 32.3796 80.48 32.3499C79.2436 32.3794 78.0185 32.1083 76.91 31.5599C75.91 31.0525 75.0872 30.2541 74.55 29.2699C73.9822 28.1888 73.6999 26.9806 73.73 25.7599V16.7599C73.6974 15.4749 73.9789 14.2014 74.55 13.0499C75.0563 12.0248 75.8618 11.1775 76.8599 10.6199C77.9279 10.0765 79.1064 9.7858 80.3045 9.77019C81.5026 9.75459 82.6882 10.0145 83.7699 10.5299C84.7193 11.043 85.4953 11.826 85.9999 12.7799C86.5932 13.935 86.9341 15.203 86.9999 16.4999H83.3099C83.2753 15.8725 83.1191 15.2577 82.8499 14.6899C82.6276 14.2411 82.2803 13.8661 81.8499 13.6099C81.4201 13.3574 80.9284 13.2293 80.4299 13.2399C79.8504 13.2251 79.2785 13.3742 78.7799 13.6699C78.2774 13.9496 77.8752 14.3797 77.6299 14.8999C77.3669 15.4841 77.2371 16.1194 77.2499 16.7599V25.7599C77.2353 26.3312 77.3697 26.8964 77.6399 27.3999C77.8932 27.8632 78.2799 28.2395 78.7499 28.4799C79.2719 28.7478 79.8535 28.8786 80.44 28.8599C81.0189 28.8759 81.5918 28.7379 82.0999 28.4599C82.566 28.1831 82.9412 27.7765 83.1799 27.2899C83.4453 26.7136 83.5753 26.0842 83.5599 25.4499V23.4499H80.5599V20.0799H87.0899Z" fill="#E2C16C"/>
<path d="M93.84 31.53C92.8392 30.9995 92.0205 30.1808 91.49 29.18C90.9095 28.0741 90.6204 26.8386 90.65 25.59V16.51C90.6196 15.2613 90.9087 14.0255 91.49 12.92C92.0211 11.9221 92.8399 11.1069 93.84 10.58C94.9525 10.0336 96.1755 9.74951 97.415 9.74951C98.6545 9.74951 99.8775 10.0336 100.99 10.58C101.988 11.1039 102.809 11.911 103.35 12.9C103.923 14.0081 104.209 15.2427 104.18 16.49V25.57C104.208 26.8172 103.923 28.0515 103.35 29.16C102.818 30.165 102 30.9897 101 31.53C99.8856 32.0699 98.6633 32.3503 97.425 32.3503C96.1867 32.3503 94.9644 32.0699 93.85 31.53H93.84ZM99.12 28.53C99.5998 28.2612 99.9868 27.8532 100.23 27.36C100.498 26.7987 100.628 26.1817 100.61 25.56V16.56C100.627 15.9448 100.497 15.3345 100.23 14.78C99.9922 14.283 99.6038 13.8736 99.12 13.61C98.5998 13.3248 98.013 13.1832 97.42 13.2C96.8238 13.1834 96.2339 13.3248 95.71 13.61C95.2257 13.8762 94.8348 14.2846 94.59 14.78C94.3198 15.3337 94.1861 15.944 94.2 16.56V25.56C94.1852 26.1824 94.3189 26.7995 94.59 27.36C94.8404 27.8515 95.2299 28.2584 95.71 28.53C96.2357 28.8104 96.8244 28.9515 97.42 28.94C98.0151 28.9424 98.6008 28.7908 99.12 28.5V28.53Z" fill="#E2C16C"/>
<path d="M108 9.97998H111.49V32.12H108V9.97998ZM109.63 28.79H119.95V32.12H109.6L109.63 28.79Z" fill="#E2C16C"/>
<path d="M122.65 9.98008H126.14V32.1201H122.65V9.98008ZM124.78 28.7901H129.07C129.929 28.8417 130.775 28.5585 131.43 28.0001C131.718 27.7 131.941 27.3432 132.084 26.9524C132.227 26.5616 132.287 26.1453 132.26 25.7301V16.3801C132.287 15.9648 132.227 15.5486 132.084 15.1578C131.941 14.767 131.718 14.4102 131.43 14.1101C130.777 13.5479 129.93 13.2642 129.07 13.3201H124.78V9.98008H129.11C130.358 9.94733 131.597 10.204 132.73 10.7301C133.69 11.2049 134.482 11.9621 135 12.9001C135.555 13.9634 135.827 15.1514 135.79 16.3501V25.7601C135.821 26.9475 135.553 28.1236 135.01 29.1801C134.491 30.1325 133.687 30.8983 132.71 31.3701C131.568 31.9 130.318 32.1568 129.06 32.1201H124.75L124.78 28.7901Z" fill="#E2C16C"/>
<path d="M150.51 13.04L143 28.79H150.78V32.12H139V29.06L146.6 13.32H139.28V9.97998H150.48L150.51 13.04Z" fill="#E2C16C"/>
<path d="M157.12 32.12H153.61V9.97998H157.12V32.12Z" fill="#E2C16C"/>
<path d="M161 9.97998H164.49V32.12H161V9.97998ZM162.72 20.2H168.28C168.706 20.2126 169.128 20.1089 169.5 19.9C169.865 19.6847 170.152 19.359 170.32 18.97C170.512 18.5217 170.608 18.0378 170.6 17.55V16.04C170.614 15.542 170.518 15.0471 170.32 14.59C170.168 14.1765 169.883 13.825 169.51 13.59C169.133 13.3734 168.705 13.2629 168.27 13.27H162.71V9.97998H168.22C169.316 9.95344 170.401 10.1973 171.38 10.69C172.261 11.1492 172.982 11.8637 173.45 12.74C173.952 13.7092 174.203 14.7888 174.18 15.88V17.7C174.203 18.7816 173.952 19.8515 173.45 20.81C172.974 21.6711 172.249 22.3682 171.37 22.81C170.393 23.2984 169.312 23.5388 168.22 23.51H162.71L162.72 20.2Z" fill="#E2C16C"/>
</svg>
