<svg width="87" height="86" viewBox="0 0 87 86" fill="none" xmlns="http://www.w3.org/2000/svg">
<path d="M73.26 13.9001C77.1393 17.7966 80.3071 22.3418 82.62 27.33C82.92 27.95 83.17 28.5901 83.45 29.2301C83.73 29.8701 83.93 30.5201 84.18 31.1701C84.43 31.8201 84.61 32.4801 84.83 33.1701C85.05 33.8601 85.2 34.5101 85.38 35.1701C86.0653 37.8855 86.4774 40.6626 86.6099 43.4601C86.8877 49.1461 85.9354 54.8252 83.8178 60.1096C81.7003 65.394 78.4674 70.1592 74.34 74.08C72.2862 76.0285 70.0377 77.7609 67.63 79.2501C65.2397 80.7271 62.707 81.96 60.07 82.9301C49.5419 86.7756 37.9702 86.6333 27.5399 82.5301C26.8999 82.2601 26.25 82.0101 25.62 81.7201C24.99 81.4301 24.37 81.1401 23.75 80.8101C23.13 80.4801 22.5199 80.1801 21.9199 79.8101C21.3199 79.4401 20.71 79.12 20.13 78.7401C17.7715 77.2511 15.5585 75.5436 13.52 73.6401C9.35455 69.782 6.02234 65.1126 3.72824 59.919C1.43413 54.7255 0.226598 49.1175 0.179958 43.44C0.10275 37.7086 1.16321 32.0188 3.29995 26.7001C5.44584 21.3767 8.65412 16.5466 12.7289 12.5044C16.8037 8.46231 21.6595 5.29302 27 3.19005C27.66 2.92005 28.34 2.71006 29 2.47006C29.66 2.23006 30.37 2.06005 31.05 1.85005C31.73 1.64005 32.43 1.52006 33.12 1.36006C33.81 1.20006 34.5199 1.10006 35.2199 0.970061C38.0129 0.522725 40.8449 0.368547 43.6699 0.510055C46.4676 0.653586 49.2444 1.07227 51.96 1.76005C52.64 1.94005 53.31 2.11006 53.96 2.31006C54.61 2.51006 55.29 2.73006 55.96 2.97006C56.63 3.21006 57.27 3.44006 57.9 3.70006C58.53 3.96006 59.18 4.23006 59.81 4.53006C64.8131 6.83173 69.3673 10.0044 73.26 13.9001ZM72.9699 14.19C69.1306 10.36 64.5034 7.41175 59.4099 5.55005C54.3897 3.72876 49.0517 2.94628 43.7199 3.25006C41.1005 3.39131 38.4996 3.77291 35.95 4.39006C35.32 4.55006 34.68 4.70006 34.06 4.89006C33.44 5.08006 32.81 5.27006 32.2 5.48006C31.59 5.69006 30.97 5.90006 30.37 6.14006C29.77 6.38006 29.17 6.63006 28.58 6.89006C23.8334 8.96668 19.5264 11.9296 15.89 15.6201C12.258 19.2924 9.34754 23.6139 7.30996 28.3601C5.2756 33.1317 4.18874 38.2534 4.10995 43.44C3.98119 54.0269 7.91829 64.2598 15.11 72.0301C20.5682 77.9853 27.7824 82.0462 35.7052 83.6232C43.6281 85.2002 51.8473 84.2113 59.1699 80.8C63.9455 78.5659 68.2547 75.4476 71.87 71.6101C79.1364 63.9706 83.4378 53.9885 84 43.4601C84.2885 38.1199 83.496 32.7765 81.6699 27.7501C79.7969 22.661 76.8384 18.0407 73 14.2101L72.9699 14.19Z" fill="#E2C16C"/>
<path d="M28.58 74.5701L50.41 52.7401C50.7216 54.3536 50.8125 56.0021 50.68 57.6401C50.73 59.2201 50.68 60.8101 50.68 62.5801C53.6489 61.5448 56.3245 59.8091 58.48 57.5201V33.3701L43 48.9001C37.8267 54.0734 32.66 59.2401 27.5 64.4001C20.43 59.9001 15.42 49.1001 17.34 38.7701C19.79 25.3501 31 17.9001 40 17.0601C40.23 18.9101 40 20.7801 40.13 22.5601L52.73 9.90007C44.1703 7.55084 35.035 8.58405 27.2163 12.7857C19.3976 16.9873 13.4946 24.0354 10.73 32.4701C4.68998 50.6701 14.66 68.4701 28.58 74.5701Z" fill="#E2C16C"/>
<path d="M36.41 24.4301C33.4945 25.4969 30.8826 27.2576 28.8 29.5601V53.6301L60.0001 22.4201C67.7201 27.6101 72.81 39.6501 69.41 51.0601C65.75 63.3501 54.4101 69.5201 47.4901 69.7501C47.0001 68.0501 47.4901 66.2501 47.2001 64.7501L35.0001 76.9501C49.3501 81.4001 69.08 74.5701 76.22 55.8401C83.22 37.4601 73.6201 18.9701 58.9501 12.3201L37.3 33.9001C36.58 33.6801 36.6901 33.1901 36.6901 32.7901C36.6901 30.6501 36.6901 28.5201 36.6901 26.3801C36.7747 25.7167 36.6779 25.0428 36.41 24.4301Z" fill="#E2C16C"/>
</svg>
