<?xml version="1.0" standalone="no"?>
<!DOCTYPE svg PUBLIC "-//W3C//DTD SVG 20010904//EN"
 "http://www.w3.org/TR/2001/REC-SVG-20010904/DTD/svg10.dtd">
<svg version="1.0" xmlns="http://www.w3.org/2000/svg"
 width="696.000000pt" height="696.000000pt" viewBox="0 0 696.000000 696.000000"
 preserveAspectRatio="xMidYMid meet">
<metadata>
Created by potrace 1.14, written by Peter Selinger 2001-2017
</metadata>
<g transform="translate(0.000000,696.000000) scale(0.100000,-0.100000)"
fill="#000000" stroke="none">
<path d="M3237 6883 c-1 -1 -49 -4 -107 -8 -58 -3 -118 -7 -135 -9 -62 -7
-164 -21 -215 -31 -14 -3 -40 -7 -58 -10 -18 -3 -65 -12 -105 -21 -39 -8 -83
-18 -96 -20 -13 -3 -32 -9 -43 -15 -10 -5 -18 -8 -18 -5 0 9 -284 -91 -400
-141 -63 -27 -314 -153 -345 -173 -16 -11 -37 -23 -45 -27 -55 -25 -266 -171
-380 -262 -123 -98 -341 -305 -425 -404 -11 -13 -38 -45 -60 -71 -22 -26 -52
-62 -67 -79 -15 -18 -28 -35 -28 -39 0 -4 -6 -13 -14 -21 -23 -23 -160 -227
-213 -317 -61 -105 -161 -305 -193 -385 -13 -33 -26 -64 -30 -70 -4 -5 -13
-28 -20 -50 -6 -22 -18 -55 -27 -73 -8 -18 -16 -40 -18 -50 -3 -9 -22 -78 -44
-152 -21 -74 -42 -148 -45 -165 -4 -16 -8 -39 -10 -50 -3 -11 -11 -51 -20 -90
-8 -38 -17 -92 -21 -120 -3 -27 -8 -61 -10 -75 -16 -94 -28 -285 -28 -455 -1
-148 8 -344 17 -390 2 -11 7 -42 10 -70 26 -200 62 -359 131 -585 82 -266 258
-622 433 -875 374 -540 954 -1000 1577 -1249 231 -93 534 -178 740 -210 17 -2
30 -5 30 -6 0 -1 14 -3 30 -5 29 -3 114 -14 165 -21 176 -24 570 -24 790 1 25
3 65 7 90 9 25 3 57 7 70 10 14 3 39 7 55 10 25 4 137 25 210 40 28 6 168 44
235 63 30 9 60 18 65 19 23 5 206 74 285 107 302 126 621 323 870 536 122 104
337 326 422 437 13 16 26 34 31 39 129 157 312 469 402 685 15 36 32 76 38 90
6 14 11 27 12 30 1 3 4 12 7 20 21 56 49 137 50 145 0 6 12 42 25 80 13 39 23
71 22 73 0 1 9 42 20 90 29 125 33 146 46 241 3 30 9 63 11 75 2 11 6 50 10
86 3 36 8 83 10 105 5 49 5 374 0 430 -13 149 -18 192 -21 205 -2 8 -7 38 -10
65 -3 28 -7 61 -10 75 -3 14 -8 39 -10 55 -3 17 -8 37 -10 45 -2 8 -7 31 -10
50 -3 19 -13 62 -21 95 -9 33 -17 67 -19 75 -4 18 -40 136 -61 200 -21 61 -25
75 -24 75 0 0 -13 34 -30 75 -18 41 -33 80 -34 85 -5 22 -132 286 -173 360
-62 110 -120 205 -181 295 -65 95 -186 256 -206 275 -6 6 -23 26 -38 45 -71
95 -309 333 -428 430 -30 25 -57 48 -60 51 -14 16 -221 169 -229 169 -5 0 -11
4 -13 8 -9 23 -394 252 -423 252 -8 0 -15 4 -17 8 -9 21 -317 151 -499 210
-130 42 -277 83 -359 98 -14 2 -45 9 -70 14 -25 5 -61 12 -80 15 -19 3 -46 8
-60 10 -98 19 -320 37 -483 39 -60 0 -109 0 -110 -1z m679 -227 c56 -4 112 -9
125 -11 13 -3 44 -8 69 -11 25 -3 56 -7 70 -10 14 -2 41 -7 60 -10 44 -6 89
-16 133 -27 10 -3 80 -19 97 -22 3 -1 32 -9 65 -19 33 -10 62 -18 65 -18 3 -1
30 -10 60 -20 30 -11 60 -21 65 -22 6 -2 23 -8 38 -14 16 -7 31 -12 35 -12 4
-1 25 -9 47 -20 22 -11 44 -19 48 -20 16 0 231 -108 318 -158 126 -72 334
-213 359 -242 3 -4 14 -13 26 -21 76 -53 301 -269 399 -384 32 -38 66 -78 75
-87 27 -30 40 -47 40 -52 0 -3 20 -32 43 -63 109 -144 247 -388 322 -568 20
-49 41 -99 46 -110 10 -22 79 -231 84 -255 2 -8 11 -42 19 -75 30 -109 55
-241 72 -370 1 -11 3 -20 4 -20 1 0 3 -18 5 -40 1 -22 6 -85 11 -140 15 -196
6 -481 -20 -658 -3 -20 -8 -53 -11 -72 -10 -68 -16 -101 -31 -165 -8 -36 -15
-72 -15 -80 -1 -8 -7 -36 -14 -62 -8 -27 -11 -48 -7 -48 3 0 1 -5 -6 -12 -7
-7 -12 -20 -12 -30 0 -31 -105 -338 -155 -454 -52 -121 -154 -327 -191 -386
-13 -21 -24 -40 -24 -43 0 -18 -273 -404 -330 -466 -8 -9 -44 -49 -80 -89
-139 -156 -260 -271 -416 -395 -60 -48 -117 -93 -127 -101 -9 -8 -21 -14 -26
-14 -5 0 -11 -3 -13 -7 -3 -8 -115 -85 -133 -92 -5 -2 -28 -16 -50 -31 -95
-63 -293 -164 -460 -235 -44 -18 -261 -94 -285 -100 -8 -1 -35 -9 -60 -16 -25
-7 -49 -14 -55 -15 -5 -2 -23 -6 -40 -9 -16 -3 -38 -8 -47 -11 -10 -3 -30 -7
-45 -10 -16 -2 -39 -7 -53 -11 -14 -3 -36 -7 -50 -8 -14 -1 -38 -5 -55 -8 -16
-3 -52 -9 -80 -12 -27 -3 -70 -8 -95 -11 -68 -9 -435 -12 -515 -4 -115 12
-188 21 -215 25 -14 2 -38 6 -55 9 -52 8 -225 45 -268 58 -23 6 -45 12 -49 14
-5 1 -9 2 -10 3 -2 2 -13 4 -25 7 -38 7 -207 66 -220 76 -7 6 -13 8 -13 5 0
-12 -279 118 -417 195 -85 47 -321 203 -343 228 -3 3 -23 18 -45 35 -21 16
-47 36 -56 45 -9 8 -41 36 -71 62 -46 41 -184 178 -253 252 -17 18 -96 113
-118 141 -4 6 -17 21 -28 35 -53 64 -164 227 -233 343 -79 131 -206 385 -206
411 0 8 -3 16 -7 18 -5 2 -16 28 -27 58 -10 30 -25 69 -32 85 -15 36 -57 171
-85 275 -21 77 -25 94 -35 144 -2 16 -7 32 -9 35 -2 4 -6 27 -10 51 -3 25 -8
52 -10 60 -2 8 -7 35 -10 60 -2 25 -7 61 -10 80 -16 121 -20 201 -20 410 0
129 4 269 9 310 4 41 10 89 11 105 3 32 9 68 25 150 5 28 12 62 15 78 5 26 14
71 19 92 19 80 79 280 86 290 5 6 8 12 8 15 -1 7 12 52 22 75 5 11 27 65 50
120 63 151 173 366 208 408 8 9 12 17 9 17 -4 0 13 29 38 64 25 36 45 67 45
70 0 3 6 14 14 23 8 10 48 63 89 118 41 55 83 109 94 120 10 11 43 50 74 85
106 122 259 269 384 369 39 31 72 59 73 64 2 4 8 7 14 7 5 0 17 7 25 16 56 55
360 240 525 318 188 89 278 126 418 170 47 15 92 30 100 33 8 3 20 7 25 8 6 2
35 10 66 19 31 9 67 19 80 21 13 3 38 8 54 12 17 4 35 8 40 9 6 1 12 3 15 4
13 4 78 17 135 25 22 4 47 8 55 10 8 2 40 7 70 10 30 4 69 8 85 10 17 2 80 7
140 11 61 3 111 7 112 8 5 4 248 -2 349 -8z"/>
<path d="M3337 6224 c-1 -1 -40 -5 -87 -8 -142 -12 -370 -51 -470 -81 -119
-35 -256 -79 -265 -84 -5 -3 -12 -6 -15 -7 -3 0 -16 -5 -30 -11 -14 -6 -54
-23 -90 -38 -76 -32 -247 -120 -307 -158 -24 -15 -46 -27 -51 -27 -4 0 -17 -8
-28 -19 -11 -10 -30 -24 -43 -30 -28 -15 -167 -119 -241 -180 -30 -25 -109
-100 -175 -166 -271 -270 -447 -531 -598 -885 -67 -157 -150 -428 -172 -557
-3 -18 -7 -46 -10 -63 -9 -55 -14 -85 -20 -126 -24 -171 -24 -519 1 -693 6
-48 34 -200 41 -231 3 -14 7 -30 9 -37 45 -222 158 -509 302 -769 28 -52 158
-250 177 -270 5 -6 21 -26 35 -45 150 -202 410 -444 635 -592 100 -65 290
-169 333 -182 20 -6 126 97 892 863 598 598 871 864 875 854 14 -36 19 -169
19 -454 0 -217 4 -308 11 -308 7 0 48 16 92 35 177 77 333 180 469 312 l52 50
0 961 c0 529 -2 962 -5 962 -2 0 -559 -556 -1238 -1236 l-1233 -1236 -49 33
c-96 65 -226 184 -298 274 -22 28 -45 55 -52 60 -9 8 -121 175 -160 240 -25
42 -105 211 -130 274 -14 36 -31 80 -39 98 -8 17 -14 36 -14 42 0 6 -7 30 -15
54 -8 24 -16 52 -18 63 -2 10 -7 26 -10 34 -3 8 -8 31 -11 50 -4 19 -8 44 -10
55 -3 11 -7 38 -11 60 -3 22 -8 50 -10 63 -24 147 -24 434 0 577 3 17 8 46 12
65 3 19 6 38 5 41 -1 4 10 49 24 100 14 52 27 99 28 104 29 120 181 460 226
505 3 3 11 17 19 32 66 128 339 427 496 543 22 17 42 32 45 36 3 3 45 31 93
63 113 74 316 178 392 202 6 2 42 15 80 28 77 27 213 64 266 72 86 13 139 16
141 8 0 -5 2 -100 3 -212 2 -112 4 -205 7 -207 4 -5 978 970 991 992 7 11 -26
24 -93 38 -8 2 -36 8 -62 14 -58 13 -219 37 -318 47 -66 6 -387 13 -393 8z"/>
<path d="M3968 5190 c-408 -408 -797 -795 -864 -861 -124 -124 -144 -134 -161
-86 -4 12 -7 164 -8 337 -1 331 -5 380 -34 380 -23 0 -223 -100 -301 -151 -81
-53 -158 -116 -235 -194 l-61 -60 1 -952 c0 -523 2 -954 5 -957 3 -3 564 553
1245 1234 682 682 1243 1240 1248 1240 39 0 305 -254 398 -380 60 -80 135
-195 159 -245 8 -16 17 -32 20 -35 10 -9 89 -185 116 -255 67 -179 110 -361
130 -550 13 -118 8 -470 -6 -505 -1 -3 -2 -8 -1 -12 1 -6 -14 -79 -45 -228
-19 -92 -157 -444 -184 -470 -3 -3 -12 -18 -20 -35 -34 -71 -183 -282 -244
-348 -14 -15 -26 -30 -26 -32 0 -5 -142 -145 -191 -190 -107 -96 -272 -210
-421 -289 -91 -49 -266 -124 -307 -132 -13 -3 -31 -9 -40 -13 -27 -15 -190
-48 -276 -56 -80 -8 -79 -11 -81 195 -2 100 -5 185 -9 188 -8 8 -966 -950
-962 -962 2 -5 10 -11 18 -12 7 -2 41 -10 74 -19 69 -18 191 -42 250 -50 22
-3 67 -9 100 -14 59 -9 496 -7 545 2 14 3 50 8 80 11 275 32 626 145 910 292
121 63 372 220 390 243 3 4 23 20 45 37 91 66 221 189 355 334 28 29 126 154
173 220 26 36 52 70 57 77 6 7 10 14 10 17 0 3 20 37 45 75 25 38 45 74 45 80
0 5 6 16 13 23 16 17 77 141 77 156 0 7 5 12 10 12 6 0 10 5 10 10 0 6 9 29
20 53 93 202 190 540 215 747 3 25 8 54 10 66 10 46 18 217 17 349 -1 132 -3
162 -16 295 -7 69 -44 273 -61 338 -2 9 -11 44 -20 77 -9 33 -20 69 -25 80 -4
11 -11 34 -15 50 -4 17 -12 44 -20 60 -7 17 -28 68 -46 115 -59 150 -233 476
-261 488 -5 2 -8 8 -8 13 0 8 -39 66 -78 114 -4 6 -24 31 -44 58 -160 211
-403 434 -638 586 -52 33 -100 64 -105 68 -20 15 -214 113 -224 113 -5 0 -344
-333 -753 -740z"/>
</g>
</svg>
