<svg width="367" height="547" viewBox="0 0 367 547" fill="none" xmlns="http://www.w3.org/2000/svg">
<path style="mix-blend-mode:color-dodge" opacity="0.5" d="M183.35 546.5C284.335 546.5 366.2 463.135 366.2 360.3C366.2 257.465 284.335 174.1 183.35 174.1C82.3647 174.1 0.5 257.465 0.5 360.3C0.5 463.135 82.3647 546.5 183.35 546.5Z" fill="url(#paint0_radial)"/>
<path style="mix-blend-mode:color-dodge" opacity="0.3" d="M180.02 502.77C269.424 502.77 341.9 390.367 341.9 251.71C341.9 113.053 269.424 0.649902 180.02 0.649902C90.6161 0.649902 18.14 113.053 18.14 251.71C18.14 390.367 90.6161 502.77 180.02 502.77Z" fill="url(#paint1_radial)"/>
<path d="M231.81 416.4L221.23 410.16V363.55L213.65 349.09V315.65H215.06V348.74L222.64 363.2V409.35L231.8 414.75L278.69 385.92L279.42 387.13L231.81 416.4Z" fill="url(#paint2_linear)"/>
<path d="M283.18 387.14C282.287 387.591 281.3 387.826 280.3 387.826C279.3 387.826 278.313 387.591 277.42 387.14C275.83 386.22 275.82 384.73 277.42 383.82C278.312 383.367 279.299 383.13 280.3 383.13C281.301 383.13 282.288 383.367 283.18 383.82C284.75 384.74 284.76 386.22 283.18 387.14Z" fill="#F3A58B"/>
<path d="M221.94 443.2L211.35 436.96V390.36L203.77 375.9V342.45H205.18V375.55L212.76 390.01V436.16L221.93 441.56L268.81 412.73L269.55 413.93L221.94 443.2Z" fill="url(#paint3_linear)"/>
<path d="M273.3 413.9C272.41 414.354 271.424 414.591 270.425 414.591C269.426 414.591 268.44 414.354 267.55 413.9C265.95 412.98 265.95 411.49 267.55 410.58C268.441 410.129 269.426 409.894 270.425 409.894C271.424 409.894 272.409 410.129 273.3 410.58C274.88 411.54 274.88 413.03 273.3 413.9Z" fill="#F3A58B"/>
<path d="M127.12 416.81L126.75 416.59L81.54 388.65L82.28 387.45L127.13 415.16L147.58 402.89V373.82L163.1 348.78V315.71H164.51V349.18L148.99 374.22V403.69L127.12 416.81Z" fill="url(#paint4_linear)"/>
<path d="M82.68 389.36C81.7896 389.814 80.8044 390.051 79.805 390.051C78.8056 390.051 77.8204 389.814 76.93 389.36C75.34 388.44 75.33 386.95 76.93 386.04C77.8224 385.587 78.8091 385.35 79.81 385.35C80.8109 385.35 81.7976 385.587 82.69 386.04C84.26 386.96 84.27 388.45 82.68 389.36Z" fill="#F3A58B"/>
<path d="M127.29 443.26L126.93 443.04L81.72 415.1L82.46 413.9L127.3 441.61L147.75 429.34V400.27L163.27 375.23V342.16H164.68V375.63L149.17 400.67V430.14L127.29 443.26Z" fill="url(#paint5_linear)"/>
<path d="M82.86 415.81C81.9697 416.264 80.9844 416.5 79.985 416.5C78.9856 416.5 78.0004 416.264 77.11 415.81C75.51 414.89 75.51 413.4 77.11 412.49C78.0014 412.039 78.9862 411.804 79.985 411.804C80.9839 411.804 81.9687 412.039 82.86 412.49C84.44 413.41 84.44 414.9 82.86 415.81Z" fill="#F3A58B"/>
<path d="M179.95 467.92V480.42L260.67 433.34V420.84L179.95 467.92Z" fill="url(#paint6_linear)"/>
<path d="M180 467.92V480.42L99.01 433.21V420.76L180 467.92Z" fill="url(#paint7_linear)"/>
<path d="M99.01 420.76L180 467.92L260.67 420.84L179.6 373.63L99.01 420.76Z" fill="url(#paint8_linear)"/>
<path d="M179.95 451.66V464.86L254.94 421.12V407.92L179.95 451.66Z" fill="url(#paint9_linear)"/>
<path d="M179.99 451.66V464.86L104.74 420.99V407.84L179.99 451.66Z" fill="url(#paint10_linear)"/>
<path d="M179.95 441.88V461.65L260.67 414.57V394.8L179.95 441.88Z" fill="url(#paint11_linear)"/>
<path d="M180 441.88V461.65L99.01 414.44V394.72L180 441.88Z" fill="url(#paint12_linear)"/>
<path d="M99.01 394.72L180 441.88L260.67 394.8L179.6 347.59L99.01 394.72Z" fill="url(#paint13_linear)"/>
<path d="M179.95 425.72V438.92L254.94 395.18V381.98L179.95 425.72Z" fill="url(#paint14_linear)"/>
<path d="M179.99 425.72V438.92L104.74 395.05V381.9L179.99 425.72Z" fill="url(#paint15_linear)"/>
<path d="M179.95 408.66V435.71L260.67 388.63V361.59L179.95 408.66Z" fill="url(#paint16_linear)"/>
<path d="M180 408.66V435.71L99.01 388.5V361.5L180 408.66Z" fill="url(#paint17_linear)"/>
<path d="M99.01 361.5L180 408.66L260.67 361.58L179.6 314.37L99.01 361.5Z" fill="url(#paint18_linear)"/>
<path d="M179.95 392.12V405.32L254.94 361.57V348.37L179.95 392.12Z" fill="url(#paint19_linear)"/>
<path d="M179.99 392.12V405.32L104.74 361.45V348.3L179.99 392.12Z" fill="url(#paint20_linear)"/>
<path d="M179.95 365.85V401.63L260.67 354.55V318.78L179.95 365.85Z" fill="url(#paint21_linear)"/>
<path d="M180 365.85V401.63L99.01 354.42V318.69L180 365.85Z" fill="url(#paint22_linear)"/>
<path d="M99.01 318.69L180 365.85L260.67 318.78L179.6 271.56L99.01 318.69Z" fill="url(#paint23_linear)"/>
<path d="M124.35 349.63C124.35 351.46 123.06 352.2 121.47 351.28C120.627 350.734 119.926 349.996 119.424 349.127C118.921 348.258 118.632 347.282 118.58 346.28C118.58 344.45 119.87 343.72 121.47 344.64C122.31 345.186 123.008 345.922 123.509 346.789C124.009 347.657 124.297 348.63 124.35 349.63Z" fill="#70C7D8"/>
<path d="M215.59 362.48C215.537 363.481 215.249 364.456 214.749 365.325C214.248 366.193 213.55 366.932 212.71 367.48C211.11 368.4 209.82 367.66 209.82 365.83C209.872 364.827 210.161 363.852 210.664 362.982C211.166 362.113 211.867 361.375 212.71 360.83C214.3 359.9 215.59 360.65 215.59 362.48Z" fill="#70C7D8"/>
<path d="M241.81 413.73C241.758 414.733 241.469 415.708 240.966 416.577C240.464 417.447 239.763 418.184 238.92 418.73C237.33 419.65 236.04 418.92 236.04 417.09C236.093 416.089 236.381 415.114 236.881 414.245C237.382 413.376 238.08 412.638 238.92 412.09C240.52 411.17 241.81 411.9 241.81 413.73Z" fill="#70C7D8"/>
<path d="M218.41 493.13L188.84 475.4L188.91 445.42L212 397.25V364.14H213.41V397.57L213.34 397.72L190.25 445.89V474.6L219.13 491.92L218.41 493.13Z" fill="url(#paint24_linear)"/>
<path d="M232.28 389.63C232.227 390.631 231.939 391.606 231.439 392.475C230.938 393.343 230.24 394.082 229.4 394.63C227.81 395.55 226.51 394.82 226.51 392.99C226.565 391.988 226.855 391.013 227.357 390.144C227.859 389.276 228.559 388.537 229.4 387.99C231 387.07 232.28 387.81 232.28 389.63Z" fill="#70C7D8"/>
<path d="M262.2 492.99L210 462.35V453.63L210.11 453.46L228.69 424.36V391.3H230.1V424.78L229.99 424.95L211.41 454.05V461.55L262.19 491.34L271.57 485.68L272.31 486.88L262.2 492.99Z" fill="url(#paint25_linear)"/>
<path d="M85.1501 450.43L84.7801 450.21L39.5701 422.27L40.3201 421.07L85.1601 448.78L105.61 436.51V407.44L121.13 382.4V349.33H122.54V382.8L107.02 407.84V437.31L85.1501 450.43Z" fill="url(#paint26_linear)"/>
<path d="M40.72 422.98C39.8277 423.433 38.8409 423.669 37.84 423.669C36.8392 423.669 35.8524 423.433 34.96 422.98C33.37 422.06 33.36 420.58 34.96 419.66C35.8531 419.209 36.8396 418.974 37.84 418.974C38.8405 418.974 39.827 419.209 40.72 419.66C42.29 420.58 42.3 422.07 40.72 422.98Z" fill="#F3A58B"/>
<path d="M143.75 403.95C143.75 405.77 142.46 406.51 140.86 405.59C140.02 405.042 139.322 404.304 138.821 403.435C138.321 402.566 138.033 401.591 137.98 400.59C137.98 398.76 139.27 398.03 140.86 398.95C141.703 399.495 142.404 400.233 142.906 401.102C143.409 401.971 143.698 402.947 143.75 403.95Z" fill="#70C7D8"/>
<path d="M94.68 476.41L77.05 467.78L77.67 466.51L94.61 474.8L132.41 452.38V433.53L140.52 421.18V403.64H141.94V421.61L133.82 433.95V453.18L133.48 453.39L94.68 476.41Z" fill="url(#paint27_linear)"/>
<path d="M77.78 468.81C76.8876 469.263 75.9008 469.499 74.9 469.499C73.8991 469.499 72.9124 469.263 72.02 468.81C70.43 467.89 70.42 466.4 72.02 465.49C72.9113 465.039 73.8961 464.804 74.895 464.804C75.8938 464.804 76.8787 465.039 77.77 465.49C79.35 466.41 79.36 467.9 77.78 468.81Z" fill="#F3A58B"/>
<path d="M161 380.74C161 382.57 159.71 383.31 158.12 382.39C157.277 381.844 156.576 381.107 156.074 380.238C155.571 379.368 155.282 378.392 155.23 377.39C155.23 375.56 156.52 374.82 158.12 375.74C158.96 376.288 159.658 377.026 160.159 377.895C160.659 378.764 160.947 379.739 161 380.74Z" fill="#70C7D8"/>
<path d="M153.64 434.35C153.64 436.18 152.35 436.91 150.75 435.99C149.91 435.443 149.211 434.704 148.71 433.835C148.21 432.966 147.922 431.991 147.87 430.99C147.87 429.16 149.16 428.42 150.75 429.34C151.594 429.886 152.296 430.626 152.799 431.497C153.301 432.368 153.589 433.346 153.64 434.35Z" fill="#70C7D8"/>
<path d="M155.99 484.17L155.26 482.96L169.44 474.6V445.86L157.45 414.46V381.19H158.86V414.33L170.85 445.73V475.4L155.99 484.17Z" fill="url(#paint28_linear)"/>
<path d="M158.16 485.58C157.268 486.033 156.281 486.269 155.28 486.269C154.279 486.269 153.292 486.033 152.4 485.58C150.81 484.66 150.8 483.18 152.4 482.26C153.291 481.809 154.276 481.574 155.275 481.574C156.274 481.574 157.259 481.809 158.15 482.26C159.73 483.18 159.74 484.67 158.16 485.58Z" fill="#F3A58B"/>
<path d="M102.43 492.54L101.73 491.32L150.75 463.31V434.44H152.16V464.12L151.81 464.33L102.43 492.54Z" fill="url(#paint29_linear)"/>
<path d="M104.62 493.95C103.728 494.403 102.741 494.639 101.74 494.639C100.739 494.639 99.7523 494.403 98.8599 493.95C97.2699 493.03 97.2599 491.54 98.8599 490.63C99.7523 490.177 100.739 489.94 101.74 489.94C102.741 489.94 103.728 490.177 104.62 490.63C106.19 491.55 106.2 493.04 104.62 493.95Z" fill="#F3A58B"/>
<path d="M223.47 495.71C222.578 496.163 221.591 496.399 220.59 496.399C219.589 496.399 218.602 496.163 217.71 495.71C216.12 494.79 216.11 493.31 217.71 492.39C218.601 491.939 219.586 491.704 220.585 491.704C221.584 491.704 222.569 491.939 223.46 492.39C225 493.31 225.05 494.8 223.47 495.71Z" fill="#F3A58B"/>
<path d="M293.36 452.33C292.468 452.783 291.481 453.019 290.48 453.019C289.479 453.019 288.492 452.783 287.6 452.33C286.01 451.41 286 449.93 287.6 449.01C288.491 448.559 289.476 448.324 290.475 448.324C291.474 448.324 292.459 448.559 293.35 449.01C294.93 449.9 294.94 451.42 293.36 452.33Z" fill="#F3A58B"/>
<path d="M276.06 486.9C275.169 487.351 274.184 487.586 273.185 487.586C272.186 487.586 271.201 487.351 270.31 486.9C268.71 485.98 268.7 484.49 270.31 483.58C271.2 483.126 272.186 482.889 273.185 482.889C274.184 482.889 275.17 483.126 276.06 483.58C277.64 484.49 277.64 485.97 276.06 486.9Z" fill="#F3A58B"/>
<path d="M249 341.32C248.945 342.322 248.655 343.297 248.153 344.166C247.651 345.034 246.951 345.772 246.11 346.32C244.52 347.24 243.23 346.5 243.23 344.67C243.283 343.669 243.571 342.694 244.071 341.825C244.572 340.956 245.27 340.218 246.11 339.67C247.74 338.75 249 339.49 249 341.32Z" fill="#70C7D8"/>
<path d="M263.61 443.73L253.03 437.49V390.89L245.45 376.43V342.98H246.86V376.08L254.44 390.54V436.68L263.6 442.09L310.49 413.26L311.22 414.46L263.61 443.73Z" fill="url(#paint30_linear)"/>
<path d="M315 414.47C314.108 414.923 313.121 415.159 312.12 415.159C311.119 415.159 310.132 414.923 309.24 414.47C307.65 413.55 307.64 412.06 309.24 411.15C310.132 410.697 311.119 410.46 312.12 410.46C313.121 410.46 314.108 410.697 315 411.15C316.55 412.07 316.56 413.56 315 414.47Z" fill="#F3A58B"/>
<path d="M290.11 451.63L289.42 450.41L268.26 462.55L239.39 445.79V416.93H237.98V446.6L267.9 463.97L268.6 463.98L290.11 451.63Z" fill="url(#paint31_linear)"/>
<path opacity="0.5" d="M309.175 196.95C320.836 185.289 320.836 166.382 309.175 154.721C297.514 143.06 278.608 143.06 266.947 154.721C255.286 166.382 255.286 185.288 266.947 196.949C278.608 208.611 297.514 208.611 309.175 196.95Z" fill="url(#paint32_radial)"/>
<path d="M199.22 330.38H197.81V321.61L179.3 311.11V165.27L156.68 130.99L156.69 98.01H158.1L158.09 130.57L180.71 164.84V310.29L199.22 320.79V330.38Z" fill="url(#paint33_linear)"/>
<path d="M219.9 314.84H218.49V307.76L201.58 297.9L183.73 308.51V181.74L183.87 181.56L222.51 129.26L223.65 130.1L185.14 182.21V306.03L201.58 296.26L219.9 306.95V314.84Z" fill="url(#paint34_linear)"/>
<path d="M142.37 302.51H140.96V276.72L170.21 293.31V231.86L153.48 196.83L105.67 175.01L105.57 174.89L78.84 144L79.91 143.07L106.53 173.85L154.53 195.76L171.62 231.7V295.74L142.37 279.14V302.51Z" fill="url(#paint35_linear)"/>
<path d="M158.58 235.26L148.08 212.64L88.62 185.44L89.21 184.16L149.14 211.58L159.86 234.67L158.58 235.26Z" fill="url(#paint36_linear)"/>
<path d="M163.12 321.58H161.71V310.44L174.81 303.39V205.91L163.75 183.26L140.65 174.38L122.66 153.37L123.73 152.45L141.49 173.2L164.78 182.14L176.22 205.59V304.24L163.12 311.28V321.58Z" fill="url(#paint37_linear)"/>
<path d="M171.5 176.91L158.79 151L151 147.84L121.32 113.03L122.4 112.12L151.84 146.66L159.82 149.89L172.77 176.3L171.5 176.91Z" fill="url(#paint38_linear)"/>
<path d="M184 129.65C184 130.309 183.805 130.952 183.439 131.5C183.073 132.048 182.553 132.474 181.944 132.726C181.336 132.978 180.666 133.045 180.02 132.916C179.374 132.788 178.781 132.47 178.315 132.005C177.85 131.539 177.532 130.946 177.404 130.3C177.275 129.654 177.341 128.984 177.593 128.375C177.845 127.767 178.272 127.247 178.82 126.881C179.368 126.515 180.011 126.32 180.67 126.32C181.552 126.322 182.398 126.674 183.022 127.298C183.646 127.922 183.997 128.768 184 129.65Z" fill="#70C7D8"/>
<path d="M247.76 242.9C244.793 242.9 241.893 242.02 239.426 240.372C236.96 238.724 235.037 236.381 233.902 233.64C232.767 230.899 232.469 227.883 233.048 224.974C233.627 222.064 235.056 219.391 237.153 217.293C239.251 215.195 241.924 213.767 244.834 213.188C247.743 212.609 250.759 212.906 253.5 214.042C256.241 215.177 258.584 217.1 260.232 219.566C261.88 222.033 262.76 224.933 262.76 227.9C262.76 231.878 261.18 235.693 258.367 238.507C255.554 241.32 251.738 242.9 247.76 242.9ZM247.76 214.27C245.069 214.272 242.438 215.072 240.201 216.568C237.965 218.065 236.222 220.191 235.193 222.678C234.165 225.165 233.896 227.902 234.423 230.541C234.949 233.181 236.246 235.605 238.15 237.507C240.054 239.409 242.479 240.705 245.119 241.229C247.758 241.753 250.494 241.483 252.981 240.453C255.467 239.422 257.592 237.678 259.087 235.44C260.582 233.202 261.38 230.571 261.38 227.88C261.385 226.088 261.037 224.313 260.355 222.655C259.673 220.998 258.67 219.492 257.405 218.223C256.14 216.954 254.637 215.947 252.981 215.26C251.326 214.573 249.552 214.22 247.76 214.22V214.27Z" fill="#F3A58B"/>
<path d="M112.34 234.65C109.373 234.65 106.473 233.77 104.006 232.122C101.54 230.474 99.6171 228.131 98.4818 225.39C97.3465 222.649 97.0494 219.633 97.6282 216.724C98.207 213.814 99.6356 211.141 101.733 209.043C103.831 206.945 106.504 205.517 109.414 204.938C112.323 204.359 115.339 204.656 118.08 205.792C120.821 206.927 123.164 208.85 124.812 211.316C126.46 213.783 127.34 216.683 127.34 219.65C127.34 223.628 125.76 227.443 122.947 230.257C120.134 233.07 116.318 234.65 112.34 234.65ZM112.34 206.01C109.648 206.018 107.019 206.823 104.784 208.325C102.55 209.826 100.81 211.956 99.7853 214.445C98.7605 216.935 98.4965 219.672 99.0266 222.311C99.5566 224.951 100.857 227.374 102.763 229.275C104.67 231.175 107.097 232.469 109.738 232.991C112.378 233.513 115.115 233.241 117.601 232.209C120.088 231.177 122.213 229.431 123.707 227.193C125.202 224.954 126 222.322 126 219.63C125.997 217.839 125.642 216.065 124.954 214.412C124.266 212.758 123.259 211.255 121.991 209.991C120.722 208.726 119.217 207.723 117.561 207.04C115.905 206.357 114.131 206.007 112.34 206.01Z" fill="#F3A58B"/>
<path d="M71 148.06C68.0333 148.06 65.1332 147.18 62.6664 145.532C60.1997 143.884 58.2771 141.541 57.1418 138.8C56.0065 136.059 55.7095 133.043 56.2882 130.133C56.867 127.224 58.2956 124.551 60.3934 122.453C62.4912 120.355 65.1639 118.927 68.0736 118.348C70.9834 117.769 73.9994 118.066 76.7403 119.202C79.4811 120.337 81.8238 122.259 83.4721 124.726C85.1203 127.193 86 130.093 86 133.06C86 137.038 84.4197 140.853 81.6066 143.666C78.7936 146.479 74.9783 148.06 71 148.06ZM71 119.43C68.3082 119.43 65.6768 120.228 63.4387 121.724C61.2005 123.219 59.4561 125.345 58.426 127.831C57.3959 130.318 57.1264 133.055 57.6515 135.695C58.1767 138.335 59.4729 140.76 61.3763 142.663C63.2797 144.567 65.7047 145.863 68.3448 146.388C70.9849 146.913 73.7214 146.644 76.2083 145.614C78.6952 144.584 80.8208 142.839 82.3163 140.601C83.8118 138.363 84.61 135.732 84.61 133.04C84.6047 129.432 83.1691 125.973 80.6179 123.422C78.0667 120.871 74.608 119.435 71 119.43Z" fill="#F3A58B"/>
<path d="M115.71 155.99C112.743 155.99 109.843 155.11 107.376 153.462C104.91 151.814 102.987 149.471 101.852 146.73C100.716 143.989 100.419 140.973 100.998 138.063C101.577 135.154 103.006 132.481 105.103 130.383C107.201 128.285 109.874 126.857 112.784 126.278C115.693 125.699 118.709 125.996 121.45 127.132C124.191 128.267 126.534 130.189 128.182 132.656C129.83 135.123 130.71 138.023 130.71 140.99C130.71 144.968 129.13 148.783 126.317 151.596C123.504 154.409 119.688 155.99 115.71 155.99ZM115.71 127.35C113.015 127.348 110.381 128.145 108.139 129.641C105.898 131.137 104.151 133.264 103.119 135.753C102.087 138.242 101.816 140.981 102.341 143.624C102.866 146.267 104.164 148.695 106.069 150.601C107.975 152.506 110.402 153.803 113.045 154.329C115.688 154.854 118.428 154.583 120.917 153.551C123.406 152.519 125.533 150.772 127.029 148.53C128.525 146.289 129.322 143.655 129.32 140.96C129.317 137.351 127.883 133.891 125.331 131.339C122.779 128.787 119.319 127.352 115.71 127.35Z" fill="#F3A58B"/>
<path d="M74.8101 194.84C71.8433 194.84 68.9432 193.96 66.4765 192.312C64.0098 190.664 62.0872 188.321 60.9519 185.58C59.8166 182.839 59.5195 179.823 60.0983 176.913C60.6771 174.004 62.1057 171.331 64.2035 169.233C66.3013 167.136 68.974 165.707 71.8837 165.128C74.7934 164.549 77.8094 164.846 80.5503 165.982C83.2912 167.117 85.6339 169.04 87.2821 171.506C88.9303 173.973 89.8101 176.873 89.8101 179.84C89.8101 183.818 88.2297 187.633 85.4167 190.446C82.6036 193.259 78.7883 194.84 74.8101 194.84ZM74.8101 166.21C72.1183 166.21 69.4869 167.008 67.2488 168.504C65.0106 169.999 63.2662 172.125 62.2361 174.611C61.2059 177.098 60.9364 179.835 61.4616 182.475C61.9867 185.115 63.283 187.54 65.1863 189.444C67.0897 191.347 69.5148 192.643 72.1549 193.168C74.795 193.694 77.5315 193.424 80.0184 192.394C82.5053 191.364 84.6309 189.619 86.1264 187.381C87.6218 185.143 88.4201 182.512 88.4201 179.82C88.4174 176.211 86.9827 172.751 84.4309 170.199C81.8791 167.647 78.4188 166.213 74.8101 166.21Z" fill="#F3A58B"/>
<path d="M112.59 115.83C109.623 115.83 106.723 114.95 104.256 113.302C101.79 111.654 99.8671 109.311 98.7318 106.57C97.5965 103.829 97.2994 100.813 97.8782 97.9035C98.457 94.9938 99.8856 92.3211 101.983 90.2233C104.081 88.1255 106.754 86.6969 109.664 86.1181C112.573 85.5393 115.589 85.8363 118.33 86.9716C121.071 88.1069 123.414 90.0295 125.062 92.4963C126.71 94.963 127.59 97.863 127.59 100.83C127.59 104.808 126.01 108.623 123.197 111.436C120.384 114.249 116.568 115.83 112.59 115.83ZM112.59 87.1999C109.898 87.1999 107.267 87.9981 105.029 89.4936C102.791 90.9891 101.046 93.1146 100.016 95.6015C98.9859 98.0884 98.7163 100.825 99.2415 103.465C99.7666 106.105 101.063 108.53 102.966 110.434C104.87 112.337 107.295 113.633 109.935 114.158C112.575 114.684 115.311 114.414 117.798 113.384C120.285 112.354 122.411 110.609 123.906 108.371C125.402 106.133 126.2 103.502 126.2 100.81C126.197 97.2009 124.763 93.7409 122.211 91.1891C119.659 88.6373 116.199 87.2025 112.59 87.1999Z" fill="#F3A58B"/>
<path d="M157.33 97.8998C154.363 97.8998 151.463 97.02 148.996 95.3717C146.53 93.7235 144.607 91.3809 143.472 88.6401C142.336 85.8992 142.039 82.8833 142.618 79.9735C143.197 77.0638 144.626 74.3909 146.723 72.2931C148.821 70.1953 151.494 68.7669 154.404 68.1881C157.313 67.6094 160.329 67.9063 163.07 69.0417C165.811 70.177 168.154 72.0996 169.802 74.5663C171.45 77.0331 172.33 79.9331 172.33 82.8998C172.33 86.8781 170.75 90.6935 167.937 93.5065C165.124 96.3196 161.308 97.8998 157.33 97.8998ZM157.33 69.2699C154.638 69.2699 152.007 70.0682 149.769 71.5636C147.53 73.0591 145.786 75.1846 144.756 77.6715C143.726 80.1584 143.456 82.895 143.981 85.5351C144.507 88.1752 145.803 90.6002 147.706 92.5036C149.61 94.407 152.035 95.703 154.675 96.2282C157.315 96.7533 160.051 96.4839 162.538 95.4538C165.025 94.4237 167.151 92.6792 168.646 90.4411C170.142 88.2029 170.94 85.5716 170.94 82.8798C170.944 81.0895 170.595 79.3161 169.913 77.6608C169.231 76.0055 168.229 74.5009 166.965 73.2331C165.701 71.9653 164.199 70.9593 162.546 70.2724C160.893 69.5854 159.12 69.2312 157.33 69.2299V69.2699Z" fill="#F3A58B"/>
<path d="M180.67 69.0697C177.703 69.0697 174.803 68.1901 172.336 66.5419C169.87 64.8937 167.947 62.5509 166.812 59.81C165.676 57.0691 165.379 54.0532 165.958 51.1435C166.537 48.2338 167.966 45.5611 170.063 43.4633C172.161 41.3655 174.834 39.9368 177.744 39.3581C180.653 38.7793 183.669 39.0763 186.41 40.2116C189.151 41.3469 191.494 43.2695 193.142 45.7362C194.79 48.203 195.67 51.103 195.67 54.0697C195.67 58.048 194.09 61.8634 191.277 64.6764C188.463 67.4895 184.648 69.0697 180.67 69.0697ZM180.67 40.4298C177.976 40.4298 175.342 41.229 173.102 42.726C170.862 44.223 169.116 46.3507 168.086 48.84C167.055 51.3293 166.786 54.0683 167.312 56.7106C167.839 59.3529 169.137 61.7799 171.043 63.6842C172.948 65.5886 175.376 66.8849 178.019 67.4093C180.662 67.9337 183.4 67.6627 185.889 66.6303C188.378 65.5979 190.504 63.8504 191.999 61.6093C193.495 59.3682 194.292 56.7339 194.29 54.0397C194.285 50.43 192.848 46.9699 190.294 44.4184C187.741 41.8669 184.28 40.4325 180.67 40.4298Z" fill="#F3A58B"/>
<path d="M218 88.19C215.033 88.19 212.133 87.3102 209.666 85.662C207.2 84.0137 205.277 81.6712 204.142 78.9303C203.007 76.1894 202.709 73.1732 203.288 70.2635C203.867 67.3538 205.296 64.6811 207.393 62.5833C209.491 60.4856 212.164 59.0569 215.074 58.4781C217.983 57.8993 220.999 58.1966 223.74 59.3319C226.481 60.4672 228.824 62.3898 230.472 64.8565C232.12 67.3233 233 70.2233 233 73.19C233 77.1683 231.42 80.9834 228.607 83.7965C225.794 86.6095 221.978 88.19 218 88.19ZM218 59.5499C215.306 59.5499 212.672 60.349 210.432 61.846C208.192 63.3431 206.446 65.4707 205.416 67.9601C204.385 70.4494 204.116 73.1886 204.642 75.8309C205.169 78.4732 206.467 80.8999 208.373 82.8043C210.279 84.7087 212.706 86.005 215.349 86.5294C217.992 87.0538 220.731 86.7827 223.219 85.7503C225.708 84.7179 227.834 82.9707 229.329 80.7296C230.825 78.4885 231.622 75.8542 231.62 73.16C231.615 69.5503 230.178 66.0902 227.624 63.5387C225.071 60.9872 221.61 59.5525 218 59.5499Z" fill="#F3A58B"/>
<path d="M230 131.45C227.033 131.45 224.133 130.57 221.666 128.922C219.2 127.274 217.277 124.931 216.142 122.19C215.007 119.449 214.709 116.433 215.288 113.524C215.867 110.614 217.296 107.941 219.393 105.843C221.491 103.746 224.164 102.317 227.074 101.738C229.983 101.159 232.999 101.457 235.74 102.592C238.481 103.727 240.824 105.65 242.472 108.117C244.12 110.583 245 113.483 245 116.45C245 120.428 243.42 124.243 240.607 127.056C237.794 129.87 233.978 131.45 230 131.45ZM230 102.81C227.305 102.808 224.671 103.605 222.429 105.101C220.188 106.597 218.441 108.724 217.409 111.213C216.377 113.702 216.106 116.442 216.631 119.085C217.156 121.728 218.454 124.155 220.359 126.061C222.265 127.966 224.692 129.263 227.335 129.789C229.978 130.314 232.718 130.043 235.207 129.011C237.696 127.979 239.823 126.232 241.319 123.991C242.815 121.749 243.612 119.115 243.61 116.42C243.607 112.811 242.173 109.351 239.621 106.799C237.069 104.247 233.609 102.813 230 102.81Z" fill="#F3A58B"/>
<path d="M263.6 99.3798C260.633 99.3798 257.733 98.5002 255.266 96.852C252.8 95.2037 250.877 92.8609 249.742 90.12C248.606 87.3791 248.309 84.3632 248.888 81.4535C249.467 78.5438 250.896 75.8709 252.993 73.7731C255.091 71.6753 257.764 70.2469 260.674 69.6681C263.583 69.0894 266.599 69.3863 269.34 70.5216C272.081 71.657 274.424 73.5796 276.072 76.0463C277.72 78.513 278.6 81.4131 278.6 84.3798C278.6 88.358 277.02 92.1734 274.207 94.9865C271.394 97.7995 267.578 99.3798 263.6 99.3798ZM263.6 70.7399C260.906 70.7399 258.273 71.5387 256.033 73.0353C253.793 74.5319 252.048 76.6589 251.017 79.1476C249.986 81.6364 249.716 84.375 250.242 87.017C250.767 89.659 252.064 92.0858 253.969 93.9906C255.874 95.8954 258.301 97.1926 260.943 97.7182C263.585 98.2437 266.323 97.9739 268.812 96.943C271.301 95.9122 273.428 94.1665 274.925 91.9267C276.421 89.6869 277.22 87.0536 277.22 84.3598C277.217 80.7483 275.782 77.2855 273.228 74.7318C270.674 72.1782 267.211 70.7426 263.6 70.7399Z" fill="#F3A58B"/>
<path d="M280.52 137.9C277.553 137.9 274.653 137.02 272.186 135.372C269.72 133.724 267.797 131.381 266.662 128.64C265.527 125.899 265.229 122.883 265.808 119.974C266.387 117.064 267.816 114.391 269.913 112.293C272.011 110.195 274.684 108.767 277.594 108.188C280.503 107.609 283.519 107.906 286.26 109.042C289.001 110.177 291.344 112.1 292.992 114.566C294.64 117.033 295.52 119.933 295.52 122.9C295.52 126.878 293.94 130.693 291.127 133.507C288.314 136.32 284.498 137.9 280.52 137.9ZM280.52 109.26C277.827 109.26 275.195 110.058 272.955 111.554C270.716 113.05 268.97 115.175 267.939 117.663C266.907 120.151 266.636 122.888 267.16 125.53C267.684 128.171 268.979 130.598 270.882 132.504C272.785 134.409 275.21 135.708 277.851 136.236C280.491 136.764 283.229 136.497 285.718 135.469C288.207 134.441 290.336 132.699 291.835 130.461C293.334 128.224 294.136 125.593 294.14 122.9C294.14 119.287 292.705 115.821 290.151 113.266C287.597 110.71 284.133 109.273 280.52 109.27V109.26Z" fill="#F3A58B"/>
<path d="M287.88 190.95C284.913 190.95 282.013 190.07 279.546 188.422C277.08 186.774 275.157 184.431 274.022 181.69C272.887 178.949 272.589 175.933 273.168 173.024C273.747 170.114 275.176 167.441 277.273 165.343C279.371 163.246 282.044 161.817 284.954 161.238C287.863 160.659 290.879 160.957 293.62 162.092C296.361 163.227 298.704 165.15 300.352 167.617C302 170.083 302.88 172.983 302.88 175.95C302.88 179.928 301.3 183.743 298.487 186.556C295.674 189.37 291.858 190.95 287.88 190.95ZM287.88 162.31C285.185 162.308 282.549 163.106 280.307 164.603C278.066 166.099 276.318 168.228 275.287 170.718C274.255 173.208 273.986 175.949 274.513 178.592C275.04 181.236 276.339 183.663 278.246 185.568C280.154 187.473 282.583 188.768 285.228 189.291C287.872 189.814 290.612 189.541 293.101 188.505C295.589 187.47 297.715 185.72 299.209 183.476C300.702 181.232 301.496 178.595 301.49 175.9C301.479 172.295 300.042 168.842 297.491 166.295C294.94 163.748 291.485 162.315 287.88 162.31Z" fill="#F3A58B"/>
<path d="M201.3 331.79C200.41 332.244 199.424 332.48 198.425 332.48C197.426 332.48 196.44 332.244 195.55 331.79C193.95 330.87 193.95 329.39 195.55 328.47C196.441 328.019 197.426 327.784 198.425 327.784C199.424 327.784 200.409 328.019 201.3 328.47C202.88 329.39 202.89 330.9 201.3 331.79Z" fill="#70C7D8"/>
<path d="M222.24 316.9C221.349 317.351 220.364 317.586 219.365 317.586C218.366 317.586 217.381 317.351 216.49 316.9C214.9 315.98 214.89 314.5 216.49 313.58C217.381 313.129 218.366 312.894 219.365 312.894C220.364 312.894 221.349 313.129 222.24 313.58C223.82 314.53 223.83 316.02 222.24 316.9Z" fill="#70C7D8"/>
<path d="M188.07 293V227.18L188.21 226.99L225.39 177.69L225.54 177.61L272.11 154.5L276.88 136.68L278.25 137.05L273.31 155.48L226.32 178.8L189.48 227.65V290.5L205.11 281.05V291.67H203.7V283.55L188.07 293Z" fill="url(#paint39_linear)"/>
<path d="M234.428 233.788L198.058 251.898L198.686 253.16L235.057 235.05L234.428 233.788Z" fill="url(#paint40_linear)"/>
<path d="M207.17 293.42C206.279 293.871 205.294 294.106 204.295 294.106C203.296 294.106 202.311 293.871 201.42 293.42C199.82 292.49 199.82 291.01 201.42 290.09C202.311 289.639 203.296 289.404 204.295 289.404C205.294 289.404 206.279 289.639 207.17 290.09C208.75 291.01 208.76 292.5 207.17 293.42Z" fill="#70C7D8"/>
<path d="M144.61 304.43C143.719 304.881 142.734 305.116 141.735 305.116C140.736 305.116 139.751 304.881 138.86 304.43C137.26 303.51 137.25 302.02 138.86 301.1C139.75 300.646 140.736 300.409 141.735 300.409C142.734 300.409 143.72 300.646 144.61 301.1C146.19 302.03 146.19 303.51 144.61 304.43Z" fill="#70C7D8"/>
<path d="M165.33 323.78C164.439 324.231 163.454 324.466 162.455 324.466C161.456 324.466 160.471 324.231 159.58 323.78C157.98 322.86 157.98 321.37 159.58 320.46C160.47 320.006 161.456 319.769 162.455 319.769C163.454 319.769 164.44 320.006 165.33 320.46C166.91 321.38 166.91 322.9 165.33 323.78Z" fill="#70C7D8"/>
<path d="M162.28 339.21H160.87V332.39L175.17 324.04V313.97H176.58V324.85L162.28 333.2V339.21Z" fill="#70C7D8"/>
<path d="M164.49 341.41C163.599 341.861 162.614 342.096 161.615 342.096C160.616 342.096 159.631 341.861 158.74 341.41C157.14 340.49 157.14 339 158.74 338.08C159.631 337.629 160.616 337.394 161.615 337.394C162.614 337.394 163.599 337.629 164.49 338.08C166.07 339.01 166.07 340.49 164.49 341.41Z" fill="#70C7D8"/>
<path d="M178.76 318.52C178.76 320.35 177.46 321.09 175.87 320.17C175.03 319.622 174.332 318.883 173.831 318.015C173.331 317.146 173.043 316.171 172.99 315.17C172.99 313.34 174.28 312.6 175.87 313.52C176.711 314.067 177.411 314.805 177.913 315.674C178.415 316.543 178.705 317.518 178.76 318.52Z" fill="#70C7D8"/>
<path d="M222.15 333.71H220.74V327.71L198.57 314.97V304.09H199.98V314.15L222.15 326.89V333.71Z" fill="#70C7D8"/>
<path d="M218.52 335.9C219.413 336.351 220.4 336.586 221.4 336.586C222.4 336.586 223.387 336.351 224.28 335.9C225.87 334.98 225.88 333.49 224.28 332.58C223.388 332.127 222.401 331.89 221.4 331.89C220.399 331.89 219.412 332.127 218.52 332.58C217 333.51 216.94 334.99 218.52 335.9Z" fill="#70C7D8"/>
<path d="M196.39 308.64C196.39 310.47 197.68 311.2 199.27 310.28C200.112 309.734 200.813 308.996 201.315 308.127C201.818 307.258 202.107 306.282 202.16 305.28C202.16 303.45 200.86 302.71 199.27 303.63C198.429 304.179 197.73 304.919 197.229 305.79C196.729 306.66 196.441 307.637 196.39 308.64Z" fill="#70C7D8"/>
<path d="M134.54 332.14H133.13V321.28L158.83 306.45V298.68H160.25V307.27L134.54 322.1V332.14Z" fill="#70C7D8"/>
<path d="M136.76 334.34C135.867 334.791 134.88 335.026 133.88 335.026C132.88 335.026 131.893 334.791 131 334.34C129.41 333.42 129.4 331.93 131 331.02C131.892 330.567 132.879 330.331 133.88 330.331C134.881 330.331 135.868 330.567 136.76 331.02C138.33 331.9 138.34 333.43 136.76 334.34Z" fill="#70C7D8"/>
<path d="M162.43 298.67C162.43 300.5 161.13 301.24 159.54 300.32C158.7 299.772 158 299.034 157.498 298.165C156.996 297.296 156.705 296.322 156.65 295.32C156.65 293.49 157.95 292.75 159.54 293.67C160.381 294.217 161.081 294.955 161.583 295.824C162.085 296.693 162.375 297.668 162.43 298.67Z" fill="#70C7D8"/>
<path d="M162.44 277.79C162.44 279.62 161.15 280.36 159.56 279.44C158.717 278.894 158.016 278.156 157.514 277.287C157.011 276.418 156.722 275.442 156.67 274.44C156.67 272.61 157.96 271.87 159.56 272.79C160.4 273.338 161.098 274.076 161.599 274.945C162.099 275.814 162.387 276.788 162.44 277.79Z" fill="#70C7D8"/>
<path d="M162.44 237.25C162.44 239.07 161.15 239.81 159.56 238.89C158.717 238.344 158.016 237.607 157.514 236.737C157.011 235.868 156.722 234.892 156.67 233.89C156.67 232.06 157.96 231.33 159.56 232.25C160.4 232.798 161.098 233.536 161.599 234.405C162.099 235.274 162.387 236.249 162.44 237.25Z" fill="#70C7D8"/>
<path d="M174.3 176.63C174.3 178.45 173.01 179.19 171.41 178.27C170.57 177.722 169.872 176.984 169.371 176.115C168.871 175.246 168.583 174.271 168.53 173.27C168.53 171.44 169.82 170.71 171.41 171.63C172.253 172.176 172.954 172.913 173.456 173.783C173.959 174.652 174.248 175.627 174.3 176.63Z" fill="#70C7D8"/>
<path d="M200.28 237.62C200.228 238.622 199.939 239.598 199.436 240.468C198.934 241.337 198.233 242.074 197.39 242.62C195.8 243.54 194.51 242.8 194.51 240.97C194.562 239.969 194.85 238.993 195.35 238.125C195.851 237.256 196.55 236.517 197.39 235.97C199 235.06 200.28 235.79 200.28 237.62Z" fill="#70C7D8"/>
<path d="M199.92 252.12C199.867 253.121 199.579 254.096 199.079 254.965C198.578 255.833 197.88 256.572 197.04 257.12C195.44 258.04 194.15 257.3 194.15 255.47C194.202 254.467 194.491 253.491 194.994 252.622C195.496 251.753 196.197 251.016 197.04 250.47C198.63 249.55 199.92 250.29 199.92 252.12Z" fill="#70C7D8"/>
<path d="M200.62 187.37C200.567 188.371 200.279 189.346 199.779 190.215C199.278 191.083 198.58 191.822 197.74 192.37C196.15 193.29 194.85 192.55 194.85 190.72C194.905 189.718 195.195 188.743 195.697 187.874C196.199 187.006 196.899 186.267 197.74 185.72C199.33 184.8 200.62 185.54 200.62 187.37Z" fill="#70C7D8"/>
<path d="M187.43 145.02C187.377 146.021 187.089 146.996 186.589 147.865C186.088 148.734 185.39 149.472 184.55 150.02C182.95 150.94 181.66 150.2 181.66 148.37C181.712 147.367 182.001 146.392 182.504 145.522C183.006 144.653 183.707 143.915 184.55 143.37C186.14 142.46 187.43 143.19 187.43 145.02Z" fill="#70C7D8"/>
<path d="M197.79 189.95L196.65 189.11L217.06 161.72L217.2 161.65L246.6 146.69L259.87 98.4099L261.23 98.78L247.8 147.67L247.52 147.81L217.99 162.83L197.79 189.95Z" fill="url(#paint41_linear)"/>
<path d="M184.07 147.96L182.95 147.1L204.38 119.27L212.67 86.0901L214.04 86.4299L205.68 119.9L205.59 120.01L184.07 147.96Z" fill="url(#paint42_linear)"/>
<path d="M196.57 241.5L195.44 240.65L218.45 209.97L218.6 209.9L275 181.61L275.63 182.87L219.38 211.08L196.57 241.5Z" fill="url(#paint43_linear)"/>
<path d="M160.61 275.26H159.2V253.55L151.66 238.11L125.51 226.41L126.09 225.12L152.7 237.03L160.61 253.22V275.26Z" fill="url(#paint44_linear)"/>
<path d="M181.38 68.4399H179.97V127.31H181.38V68.4399Z" fill="url(#paint45_linear)"/>
<path d="M249.39 222.12C248.325 222.088 247.276 222.389 246.39 222.98C245.858 223.374 245.409 223.871 245.07 224.44C244.702 225.001 244.459 225.636 244.36 226.3H251.68L251.39 227.74H244.19C244.19 227.89 244.19 228.03 244.19 228.17C244.19 228.72 244.19 229.05 244.19 229.17H251.1L250.8 230.61H244.41C244.493 231.315 244.731 231.994 245.106 232.597C245.481 233.2 245.984 233.713 246.58 234.1C247.385 234.587 248.309 234.843 249.25 234.84C250.392 234.911 251.516 234.53 252.38 233.78V235.99C251.44 236.424 250.415 236.639 249.38 236.62C246.153 236.62 243.97 235.287 242.83 232.62C242.568 231.974 242.37 231.304 242.24 230.62H240.6L240.9 229.18H242.03C242.03 228.88 242.03 228.56 242.03 228.18C242.03 228.03 242.03 227.89 242.03 227.74H240.63L240.93 226.3H242.17C242.322 225.255 242.714 224.259 243.316 223.391C243.918 222.524 244.714 221.808 245.64 221.3C246.804 220.646 248.115 220.302 249.45 220.3C250.627 220.259 251.791 220.561 252.8 221.17L252.37 223.17C251.535 222.474 250.477 222.101 249.39 222.12Z" fill="#F3A58B"/>
<path d="M279.23 121.24H282.61V122.82H279.61C279.738 123.12 279.806 123.443 279.81 123.77C279.8 124.461 279.647 125.142 279.36 125.77C279.003 126.561 278.509 127.282 277.9 127.9C278.403 127.75 278.925 127.669 279.45 127.66C280.125 127.671 280.796 127.762 281.45 127.93C282.268 128.154 283.105 128.301 283.95 128.37C284.671 128.318 285.374 128.114 286.01 127.77L286.63 129.54C286.136 129.762 285.624 129.943 285.1 130.08C284.75 130.167 284.391 130.211 284.03 130.21C283.722 130.208 283.414 130.181 283.11 130.13C282.917 130.09 282.457 129.96 281.73 129.74C280.99 129.51 280.52 129.38 280.3 129.33C279.969 129.278 279.635 129.252 279.3 129.25C278.74 129.257 278.183 129.348 277.65 129.52C277.087 129.683 276.551 129.929 276.06 130.25L275.32 128.39C276.023 127.995 276.62 127.436 277.06 126.76C277.559 125.994 277.811 125.094 277.78 124.18C277.777 123.731 277.717 123.284 277.6 122.85H275.5V121.27H277.15C276.966 120.693 276.816 120.105 276.7 119.51C276.638 119.157 276.605 118.799 276.6 118.44C276.571 117.768 276.706 117.099 276.993 116.491C277.281 115.883 277.712 115.354 278.25 114.95C279.182 114.268 280.315 113.916 281.47 113.95C282.631 113.906 283.769 114.286 284.67 115.02C285.543 115.792 286.099 116.861 286.23 118.02L284.3 118.31C284.225 117.543 283.869 116.83 283.3 116.31C282.769 115.824 282.075 115.554 281.355 115.554C280.635 115.554 279.941 115.824 279.41 116.31C279.157 116.546 278.956 116.833 278.82 117.152C278.684 117.47 278.616 117.814 278.62 118.16C278.676 119.21 278.882 120.247 279.23 121.24Z" fill="#F3A58B"/>
<path d="M229.38 126.35V124.42C228.562 124.34 227.763 124.121 227.02 123.77C226.373 123.417 225.834 122.895 225.46 122.26C224.994 121.491 224.73 120.618 224.69 119.72L226.63 119.36C226.702 120.175 226.977 120.959 227.43 121.64C227.657 121.957 227.948 122.223 228.284 122.421C228.619 122.619 228.993 122.744 229.38 122.79V116.64C228.523 116.465 227.699 116.154 226.94 115.72C226.341 115.387 225.848 114.891 225.52 114.29C225.182 113.653 225.01 112.941 225.02 112.22C225 111.591 225.12 110.966 225.373 110.39C225.626 109.813 226.004 109.301 226.48 108.89C227.311 108.239 228.326 107.868 229.38 107.83V106.9H230.52V107.82C231.491 107.875 232.422 108.224 233.19 108.82C234.049 109.552 234.594 110.587 234.71 111.71L232.71 112.01C232.64 111.37 232.391 110.763 231.99 110.26C231.599 109.839 231.078 109.56 230.51 109.47V115.03C231.163 115.184 231.807 115.375 232.44 115.6C232.987 115.84 233.485 116.179 233.91 116.6C234.292 116.983 234.589 117.444 234.78 117.95C235.067 118.658 235.178 119.424 235.103 120.184C235.028 120.944 234.769 121.675 234.348 122.312C233.928 122.95 233.359 123.476 232.691 123.845C232.022 124.214 231.273 124.415 230.51 124.43V126.38L229.38 126.35ZM229.38 109.44C228.698 109.524 228.067 109.846 227.6 110.35C227.203 110.817 226.978 111.406 226.962 112.019C226.945 112.632 227.139 113.232 227.51 113.72C228.017 114.25 228.666 114.621 229.38 114.79V109.44ZM230.52 122.79C231.245 122.708 231.912 122.35 232.38 121.79C232.876 121.217 233.137 120.477 233.11 119.72C233.14 119.113 232.956 118.515 232.59 118.03C232.012 117.474 231.298 117.081 230.52 116.89V122.79Z" fill="#F3A58B"/>
<path d="M216.17 80.97V77.48H211.72V75.99H216.17V74.46H211.72V72.8999H215.38L211.03 65.27H213.17L216.28 70.8098C216.582 71.3453 216.855 71.8962 217.1 72.46C217.26 72.08 217.56 71.46 217.98 70.71L220.92 65.27H223.21L218.87 72.8999H222.52V74.49H218.11V76.02H222.52V77.51H218.11V81L216.17 80.97Z" fill="#F3A58B"/>
<path d="M71.9999 127.06C70.9332 127.026 69.8832 127.331 68.9999 127.93C68.4646 128.321 68.0153 128.818 67.6799 129.39C67.3134 129.949 67.0712 130.58 66.9699 131.24H74.2899L73.9999 132.68H66.7999C66.7999 132.83 66.7999 132.98 66.7999 133.11C66.7999 133.66 66.7999 133.99 66.7999 134.11H73.7099L73.4099 135.55H66.9999C67.0835 136.254 67.3213 136.931 67.6964 137.532C68.0714 138.134 68.5746 138.645 69.1699 139.03C69.9725 139.523 70.898 139.78 71.8399 139.77C72.98 139.84 74.1024 139.463 74.9699 138.72V140.9C74.028 141.326 73.0035 141.538 71.9699 141.52C68.7366 141.52 66.5533 140.187 65.4199 137.52C65.1578 136.875 64.9601 136.205 64.8299 135.52H63.1899L63.4899 134.08H64.6099C64.6099 133.78 64.6099 133.45 64.6099 133.08C64.6099 132.94 64.6099 132.79 64.6099 132.64H63.2099L63.5099 131.2H64.7499C64.9032 130.155 65.2962 129.16 65.8982 128.293C66.5002 127.425 67.2949 126.709 68.2199 126.2C69.3908 125.572 70.7011 125.248 72.0299 125.26C73.2072 125.22 74.3709 125.522 75.3799 126.13L74.9499 128.13C74.1255 127.433 73.0793 127.054 71.9999 127.06Z" fill="#F3A58B"/>
<path d="M111.47 99.8297H114.85V101.42H111.85C111.986 101.715 112.057 102.035 112.06 102.36C112.05 103.05 111.897 103.731 111.61 104.36C111.25 105.145 110.756 105.863 110.15 106.48C110.65 106.33 111.168 106.249 111.69 106.24C112.365 106.252 113.036 106.343 113.69 106.51C114.508 106.734 115.345 106.881 116.19 106.95C116.911 106.896 117.613 106.692 118.25 106.35L118.87 108.12C118.374 108.34 117.863 108.524 117.34 108.67C116.986 108.752 116.624 108.796 116.26 108.8C115.955 108.799 115.65 108.769 115.35 108.71C115.16 108.71 114.69 108.54 113.96 108.32C113.23 108.1 112.75 107.96 112.54 107.92C112.21 107.861 111.875 107.831 111.54 107.83C110.98 107.838 110.424 107.929 109.89 108.1C109.329 108.269 108.794 108.515 108.3 108.83L107.56 106.97C108.263 106.576 108.863 106.021 109.31 105.35C109.806 104.583 110.058 103.683 110.03 102.77C110.029 102.321 109.968 101.873 109.85 101.44H107.74V99.8498H109.39C109.16 99.0498 109.01 98.4598 108.94 98.0998C108.881 97.7428 108.851 97.3818 108.85 97.0199C108.821 96.3479 108.956 95.6788 109.243 95.0707C109.531 94.4626 109.962 93.9336 110.5 93.5297C111.434 92.8514 112.566 92.4999 113.72 92.5297C114.881 92.4864 116.018 92.8668 116.92 93.5998C117.794 94.3702 118.348 95.4409 118.47 96.5998L116.55 96.8898C116.465 96.1256 116.11 95.4167 115.55 94.8898C115.019 94.4035 114.325 94.1337 113.605 94.1337C112.885 94.1337 112.191 94.4035 111.66 94.8898C111.406 95.1255 111.204 95.4121 111.068 95.7309C110.932 96.0496 110.865 96.3934 110.87 96.7399C110.917 97.7938 111.119 98.8348 111.47 99.8297Z" fill="#F3A58B"/>
<path d="M74.41 190.09V188.16C73.5918 188.08 72.7935 187.861 72.05 187.51C71.4052 187.154 70.8668 186.633 70.49 186C70.0244 185.231 69.7596 184.358 69.72 183.46L71.66 183.09C71.7309 183.908 72.006 184.695 72.46 185.38C72.687 185.697 72.9778 185.963 73.3136 186.161C73.6494 186.359 74.0228 186.484 74.41 186.53V180.38C73.553 180.205 72.7294 179.894 71.97 179.46C71.3728 179.125 70.881 178.629 70.55 178.03C70.1015 177.143 69.9565 176.134 70.1372 175.156C70.3178 174.179 70.8141 173.288 71.55 172.62C72.3914 171.997 73.4037 171.648 74.45 171.62V170.7H75.59V171.62C76.5607 171.675 77.4918 172.024 78.26 172.62C79.1194 173.352 79.6637 174.387 79.78 175.51L77.78 175.81C77.7104 175.17 77.4607 174.563 77.06 174.06C76.6671 173.639 76.1473 173.358 75.58 173.26V178.83C76.2358 178.975 76.8807 179.165 77.51 179.4C78.0573 179.64 78.5556 179.979 78.98 180.4C79.3645 180.785 79.6613 181.249 79.85 181.76C80.0619 182.298 80.1672 182.872 80.16 183.45C80.18 184.067 80.0767 184.681 79.8563 185.258C79.6358 185.834 79.3026 186.361 78.8761 186.807C78.4496 187.253 77.9384 187.609 77.3724 187.855C76.8064 188.102 76.1971 188.232 75.58 188.24V190.24L74.41 190.09ZM74.41 173.18C73.7314 173.268 73.1033 173.586 72.63 174.08C72.2057 174.555 71.977 175.173 71.99 175.81C71.9672 176.408 72.1626 176.995 72.54 177.46C73.0454 177.99 73.6959 178.358 74.41 178.52V173.18ZM75.55 186.53C76.2739 186.443 76.9383 186.086 77.41 185.53C77.9061 184.957 78.1669 184.217 78.14 183.46C78.1702 182.853 77.9862 182.255 77.62 181.77C77.0478 181.207 76.3316 180.813 75.55 180.63V186.53Z" fill="#F3A58B"/>
<path d="M180.16 63.76V61.8298C179.342 61.7502 178.543 61.5305 177.8 61.1799C177.156 60.8279 176.617 60.31 176.24 59.6799C175.776 58.907 175.511 58.0306 175.47 57.1299L177.41 56.77C177.479 57.5856 177.754 58.3701 178.21 59.0498C178.443 59.3726 178.741 59.6423 179.086 59.8406C179.431 60.0389 179.814 60.1613 180.21 60.2V54.0498C179.351 53.8806 178.527 53.5698 177.77 53.1299C177.168 52.8004 176.675 52.3038 176.35 51.7C175.902 50.8146 175.758 49.8066 175.938 48.8311C176.119 47.8555 176.615 46.9662 177.35 46.2998C178.185 45.6595 179.198 45.293 180.25 45.25V44.3198H181.39V45.25C182.362 45.3008 183.294 45.65 184.06 46.25C184.916 46.9846 185.46 48.0182 185.58 49.1399L183.58 49.4399C183.52 48.8025 183.273 48.1971 182.87 47.7C182.478 47.2778 181.958 46.9966 181.39 46.8999V52.47C182.044 52.6179 182.688 52.8047 183.32 53.0298C183.867 53.2703 184.365 53.6093 184.79 54.0298C185.168 54.4163 185.464 54.8757 185.66 55.3799C185.867 55.9226 185.972 56.4989 185.97 57.0798C185.989 57.6958 185.884 58.3095 185.663 58.8848C185.442 59.46 185.109 59.9854 184.682 60.4304C184.256 60.8754 183.745 61.2309 183.18 61.4763C182.615 61.7218 182.006 61.8522 181.39 61.8599V63.8599L180.16 63.76ZM180.16 46.8599C179.478 46.9357 178.846 47.2554 178.38 47.76C177.977 48.2265 177.748 48.8178 177.732 49.4338C177.715 50.0499 177.913 50.6527 178.29 51.1399C178.799 51.6649 179.448 52.0329 180.16 52.2V46.8599ZM181.3 60.2C182.025 60.1181 182.692 59.76 183.16 59.2C183.656 58.6269 183.917 57.8873 183.89 57.1299C183.92 56.523 183.736 55.9248 183.37 55.4399C182.791 54.8865 182.077 54.4935 181.3 54.2998V60.2Z" fill="#F3A58B"/>
<path d="M255.6 91.5898V90.02L262.85 81.7C262.03 81.7 261.3 81.76 260.67 81.76H256V80.2H265.31V81.47L259.14 88.7L257.95 90.02C258.82 89.96 259.63 89.9199 260.39 89.9199H265.65V91.5898H255.6Z" fill="#F3A58B"/>
<path d="M267.58 85.4299L266.19 86.6099V84.8999L267.58 83.72V75.8999H269.5V82.1499L271 80.8999V82.5898L269.55 83.8198V91.6199H267.63L267.58 85.4299Z" fill="#F3A58B"/>
<path d="M155.85 83.8998V85.4399H162.15V86.8998H155.85V90.8998H153.77V86.8998H152.7V85.4198H153.77V83.8998H152.7V82.0998H153.77V75.1598H158.7C159.78 75.113 160.859 75.2551 161.89 75.5798C162.624 75.866 163.24 76.3908 163.64 77.0697C164.079 77.7854 164.308 78.6103 164.3 79.4499C164.325 80.2 164.156 80.9438 163.81 81.6098C163.503 82.1654 163.064 82.6363 162.53 82.9799C161.972 83.3326 161.35 83.5737 160.7 83.6899C159.995 83.8309 159.278 83.9013 158.56 83.8998H155.85ZM158.56 82.0998C159.019 82.1013 159.478 82.0613 159.93 81.9799C160.336 81.9198 160.727 81.7803 161.08 81.5697C161.407 81.373 161.676 81.0938 161.86 80.7599C162.067 80.3551 162.166 79.9041 162.15 79.4499C162.162 79.0411 162.073 78.6358 161.89 78.2699C161.719 77.9512 161.472 77.6797 161.17 77.4799C160.843 77.2665 160.481 77.1139 160.1 77.0297C159.666 76.9355 159.224 76.8886 158.78 76.8898H155.85V82.0998H158.56Z" fill="#F3A58B"/>
<path d="M122 144.23H112.8C112.736 144.509 112.705 144.794 112.71 145.08C112.686 145.839 112.95 146.578 113.45 147.15C113.755 147.487 114.132 147.751 114.552 147.924C114.973 148.097 115.426 148.174 115.88 148.15C116.322 148.173 116.763 148.102 117.175 147.942C117.587 147.782 117.96 147.536 118.27 147.22C118.783 146.67 119.103 145.968 119.18 145.22L121.18 145.58C121.138 146.163 120.975 146.731 120.702 147.248C120.428 147.764 120.049 148.218 119.59 148.58C118.54 149.356 117.255 149.748 115.95 149.69C115.203 149.687 114.462 149.555 113.76 149.3C113.115 149.081 112.529 148.715 112.05 148.23C111.627 147.785 111.296 147.261 111.077 146.688C110.857 146.114 110.753 145.504 110.77 144.89C110.771 144.649 110.791 144.408 110.83 144.17H110.15V142.37H111.51C111.995 141.702 112.656 141.182 113.42 140.87C113.6 140.8 114.34 140.58 115.63 140.22H110.15V138.42H118.71C118.852 138.081 118.92 137.717 118.91 137.35C118.926 136.713 118.697 136.093 118.27 135.62C117.97 135.318 117.608 135.085 117.21 134.936C116.811 134.788 116.384 134.728 115.96 134.76C115.577 134.731 115.192 134.785 114.831 134.918C114.471 135.05 114.143 135.259 113.87 135.53C113.469 136.033 113.22 136.64 113.15 137.28L111.15 136.98C111.268 135.86 111.812 134.829 112.67 134.1C113.55 133.405 114.65 133.05 115.77 133.1C117.06 133.004 118.342 133.377 119.38 134.15C119.856 134.563 120.233 135.078 120.484 135.656C120.735 136.234 120.853 136.86 120.83 137.49C120.834 137.799 120.808 138.107 120.75 138.41H122V140.21H119.84C119.559 140.528 119.219 140.789 118.84 140.98C117.694 141.499 116.498 141.898 115.27 142.17C115.06 142.23 114.87 142.29 114.69 142.36H122V144.23Z" fill="#F3A58B"/>
<path d="M105.54 227.6V211.9H107.47V220.9L112.04 216.27H114.54L110.18 220.5L114.98 227.66H112.6L108.83 221.84L107.47 223.14V227.66L105.54 227.6Z" fill="#F3A58B"/>
<path d="M116.49 227.6V216.21H118.23V217.9C118.514 217.281 118.935 216.734 119.46 216.3C119.822 216.043 120.256 215.907 120.7 215.91C121.412 215.925 122.105 216.139 122.7 216.53L122.04 218.32C121.61 218.062 121.121 217.921 120.62 217.91C120.208 217.904 119.806 218.038 119.48 218.29C119.136 218.554 118.887 218.922 118.77 219.34C118.544 220.072 118.432 220.834 118.44 221.6V227.6H116.49Z" fill="#F3A58B"/>
<path d="M287.36 185.64V183.71C286.545 183.631 285.75 183.411 285.01 183.06C284.357 182.711 283.814 182.189 283.44 181.55C282.979 180.779 282.714 179.907 282.67 179.01L284.62 178.65C284.688 179.464 284.96 180.248 285.41 180.93C285.637 181.247 285.928 181.513 286.264 181.711C286.599 181.909 286.973 182.034 287.36 182.08V175.9C286.505 175.729 285.684 175.418 284.93 174.98C284.326 174.653 283.832 174.156 283.51 173.55C283.165 172.916 282.992 172.202 283.01 171.48C282.988 170.851 283.107 170.225 283.36 169.648C283.613 169.072 283.992 168.56 284.47 168.15C285.302 167.51 286.311 167.143 287.36 167.1V166.17H288.5V167.1C289.472 167.151 290.404 167.5 291.17 168.1C292.028 168.833 292.572 169.868 292.69 170.99L290.69 171.29C290.627 170.651 290.376 170.046 289.97 169.55C289.58 169.125 289.059 168.844 288.49 168.75V174.31C289.144 174.463 289.788 174.653 290.42 174.88C290.967 175.12 291.465 175.459 291.89 175.88C292.272 176.263 292.569 176.724 292.76 177.23C292.971 177.768 293.076 178.342 293.07 178.92C293.09 179.537 292.987 180.151 292.766 180.728C292.546 181.304 292.213 181.831 291.786 182.277C291.36 182.723 290.848 183.079 290.282 183.325C289.717 183.571 289.107 183.702 288.49 183.71V185.66L287.36 185.64ZM287.36 168.74C286.68 168.814 286.05 169.134 285.59 169.64C285.159 170.108 284.926 170.724 284.94 171.36C284.919 171.961 285.114 172.55 285.49 173.02C286.001 173.543 286.649 173.91 287.36 174.08V168.74ZM288.5 182.08C289.226 181.998 289.892 181.64 290.36 181.08C290.856 180.507 291.117 179.767 291.09 179.01C291.12 178.403 290.936 177.805 290.57 177.32C289.994 176.762 289.279 176.369 288.5 176.18V182.08Z" fill="#F3A58B"/>
<defs>
<radialGradient id="paint0_radial" cx="0" cy="0" r="1" gradientUnits="userSpaceOnUse" gradientTransform="translate(189.322 366.676) scale(181.86 187.056)">
<stop stop-color="#CE549A"/>
<stop offset="0.25" stop-color="#9F4177"/>
<stop offset="0.8" stop-color="#2B1220"/>
<stop offset="1" stop-color="#010100"/>
</radialGradient>
<radialGradient id="paint1_radial" cx="0" cy="0" r="1" gradientUnits="userSpaceOnUse" gradientTransform="translate(179.336 252.808) scale(161.964 251.161)">
<stop stop-color="#354498"/>
<stop offset="0.33" stop-color="#25306A"/>
<stop offset="1" stop-color="#010100"/>
</radialGradient>
<linearGradient id="paint2_linear" x1="268.28" y1="354.26" x2="203.63" y2="370.96" gradientUnits="userSpaceOnUse">
<stop offset="0.02" stop-color="#F3A58B"/>
<stop offset="0.08" stop-color="#B0748F"/>
<stop offset="0.13" stop-color="#794C92"/>
<stop offset="0.16" stop-color="#633C93"/>
<stop offset="0.4" stop-color="#6660A5"/>
<stop offset="0.93" stop-color="#6FBBD2"/>
<stop offset="1" stop-color="#70C7D8"/>
</linearGradient>
<linearGradient id="paint3_linear" x1="26213.8" y1="286782" x2="21802.4" y2="287525" gradientUnits="userSpaceOnUse">
<stop offset="0.02" stop-color="#F3A58B"/>
<stop offset="0.08" stop-color="#B0748F"/>
<stop offset="0.13" stop-color="#794C92"/>
<stop offset="0.16" stop-color="#633C93"/>
<stop offset="0.4" stop-color="#6660A5"/>
<stop offset="0.93" stop-color="#6FBBD2"/>
<stop offset="1" stop-color="#70C7D8"/>
</linearGradient>
<linearGradient id="paint4_linear" x1="20886.3" y1="284199" x2="24274.3" y2="286070" gradientUnits="userSpaceOnUse">
<stop offset="0.02" stop-color="#F3A58B"/>
<stop offset="0.08" stop-color="#B0748F"/>
<stop offset="0.13" stop-color="#794C92"/>
<stop offset="0.16" stop-color="#633C93"/>
<stop offset="0.4" stop-color="#6660A5"/>
<stop offset="0.93" stop-color="#6FBBD2"/>
<stop offset="1" stop-color="#70C7D8"/>
</linearGradient>
<linearGradient id="paint5_linear" x1="20898.9" y1="286899" x2="24286.7" y2="288770" gradientUnits="userSpaceOnUse">
<stop offset="0.02" stop-color="#F3A58B"/>
<stop offset="0.08" stop-color="#B0748F"/>
<stop offset="0.13" stop-color="#794C92"/>
<stop offset="0.16" stop-color="#633C93"/>
<stop offset="0.4" stop-color="#6660A5"/>
<stop offset="0.93" stop-color="#6FBBD2"/>
<stop offset="1" stop-color="#70C7D8"/>
</linearGradient>
<linearGradient id="paint6_linear" x1="207.12" y1="454.58" x2="380.7" y2="402.6" gradientUnits="userSpaceOnUse">
<stop stop-color="#232243"/>
<stop offset="1" stop-color="#3F2479"/>
</linearGradient>
<linearGradient id="paint7_linear" x1="13450.2" y1="175679" x2="31221.7" y2="170270" gradientUnits="userSpaceOnUse">
<stop stop-color="#232243"/>
<stop offset="1" stop-color="#3F2479"/>
</linearGradient>
<linearGradient id="paint8_linear" x1="251.46" y1="284.31" x2="160.93" y2="456.84" gradientUnits="userSpaceOnUse">
<stop offset="0.74" stop-color="#3F2479"/>
<stop offset="1" stop-color="#354498"/>
</linearGradient>
<linearGradient id="paint9_linear" x1="166.61" y1="450.71" x2="328.73" y2="402.17" gradientUnits="userSpaceOnUse">
<stop offset="0.03" stop-color="#633C93"/>
<stop offset="0.31" stop-color="#6660A5"/>
<stop offset="0.92" stop-color="#6FBBD2"/>
<stop offset="1" stop-color="#70C7D8"/>
</linearGradient>
<linearGradient id="paint10_linear" x1="38.08" y1="458.83" x2="251.29" y2="411.04" gradientUnits="userSpaceOnUse">
<stop offset="0.04" stop-color="#1B84B2"/>
<stop offset="0.27" stop-color="#2A90B9"/>
<stop offset="0.71" stop-color="#53B0CB"/>
<stop offset="1" stop-color="#70C7D8"/>
</linearGradient>
<linearGradient id="paint11_linear" x1="27933.9" y1="193876" x2="41734.4" y2="188886" gradientUnits="userSpaceOnUse">
<stop stop-color="#232243"/>
<stop offset="1" stop-color="#3F2479"/>
</linearGradient>
<linearGradient id="paint12_linear" x1="13248.5" y1="195547" x2="31738.5" y2="190532" gradientUnits="userSpaceOnUse">
<stop stop-color="#232243"/>
<stop offset="1" stop-color="#3F2479"/>
</linearGradient>
<linearGradient id="paint13_linear" x1="62897.4" y1="256841" x2="57091.7" y2="275811" gradientUnits="userSpaceOnUse">
<stop offset="0.74" stop-color="#3F2479"/>
<stop offset="1" stop-color="#354498"/>
</linearGradient>
<linearGradient id="paint14_linear" x1="166.61" y1="450.71" x2="328.73" y2="402.17" gradientUnits="userSpaceOnUse">
<stop offset="0.03" stop-color="#633C93"/>
<stop offset="0.31" stop-color="#6660A5"/>
<stop offset="0.92" stop-color="#6FBBD2"/>
<stop offset="1" stop-color="#70C7D8"/>
</linearGradient>
<linearGradient id="paint15_linear" x1="38.08" y1="458.83" x2="251.29" y2="411.04" gradientUnits="userSpaceOnUse">
<stop offset="0.04" stop-color="#1B84B2"/>
<stop offset="0.27" stop-color="#2A90B9"/>
<stop offset="0.71" stop-color="#53B0CB"/>
<stop offset="1" stop-color="#70C7D8"/>
</linearGradient>
<linearGradient id="paint16_linear" x1="27910.5" y1="212698" x2="42319.6" y2="207999" gradientUnits="userSpaceOnUse">
<stop stop-color="#232243"/>
<stop offset="1" stop-color="#3F2479"/>
</linearGradient>
<linearGradient id="paint17_linear" x1="13047.7" y1="214587" x2="32184" y2="209905" gradientUnits="userSpaceOnUse">
<stop stop-color="#232243"/>
<stop offset="1" stop-color="#3F2479"/>
</linearGradient>
<linearGradient id="paint18_linear" x1="62897.5" y1="253676" x2="57091.8" y2="272647" gradientUnits="userSpaceOnUse">
<stop offset="0.74" stop-color="#3F2479"/>
<stop offset="1" stop-color="#354498"/>
</linearGradient>
<linearGradient id="paint19_linear" x1="166.61" y1="450.71" x2="328.73" y2="402.17" gradientUnits="userSpaceOnUse">
<stop offset="0.03" stop-color="#633C93"/>
<stop offset="0.31" stop-color="#6660A5"/>
<stop offset="0.92" stop-color="#6FBBD2"/>
<stop offset="1" stop-color="#70C7D8"/>
</linearGradient>
<linearGradient id="paint20_linear" x1="38.08" y1="458.83" x2="251.29" y2="411.04" gradientUnits="userSpaceOnUse">
<stop offset="0.04" stop-color="#1B84B2"/>
<stop offset="0.27" stop-color="#2A90B9"/>
<stop offset="0.71" stop-color="#53B0CB"/>
<stop offset="1" stop-color="#70C7D8"/>
</linearGradient>
<linearGradient id="paint21_linear" x1="27882.3" y1="234488" x2="42947" y2="230093" gradientUnits="userSpaceOnUse">
<stop stop-color="#232243"/>
<stop offset="1" stop-color="#3F2479"/>
</linearGradient>
<linearGradient id="paint22_linear" x1="12805.5" y1="236612" x2="32655.8" y2="232267" gradientUnits="userSpaceOnUse">
<stop stop-color="#232243"/>
<stop offset="1" stop-color="#3F2479"/>
</linearGradient>
<linearGradient id="paint23_linear" x1="215.69" y1="250.42" x2="145.37" y2="384.44" gradientUnits="userSpaceOnUse">
<stop offset="0.14" stop-color="#3F2479"/>
<stop offset="1" stop-color="#354498"/>
</linearGradient>
<linearGradient id="paint24_linear" x1="10578.3" y1="381781" x2="6242.19" y2="366076" gradientUnits="userSpaceOnUse">
<stop offset="0.02" stop-color="#F3A58B"/>
<stop offset="0.08" stop-color="#B0748F"/>
<stop offset="0.13" stop-color="#794C92"/>
<stop offset="0.16" stop-color="#633C93"/>
<stop offset="0.4" stop-color="#6660A5"/>
<stop offset="0.93" stop-color="#6FBBD2"/>
<stop offset="1" stop-color="#70C7D8"/>
</linearGradient>
<linearGradient id="paint25_linear" x1="24292.2" y1="301019" x2="18988.4" y2="293338" gradientUnits="userSpaceOnUse">
<stop offset="0.02" stop-color="#F3A58B"/>
<stop offset="0.08" stop-color="#B0748F"/>
<stop offset="0.13" stop-color="#794C92"/>
<stop offset="0.16" stop-color="#633C93"/>
<stop offset="0.4" stop-color="#6660A5"/>
<stop offset="0.93" stop-color="#6FBBD2"/>
<stop offset="1" stop-color="#70C7D8"/>
</linearGradient>
<linearGradient id="paint26_linear" x1="16170.6" y1="293946" x2="23758.1" y2="288593" gradientUnits="userSpaceOnUse">
<stop offset="0.02" stop-color="#F3A58B"/>
<stop offset="0.08" stop-color="#B0748F"/>
<stop offset="0.13" stop-color="#794C92"/>
<stop offset="0.16" stop-color="#633C93"/>
<stop offset="0.4" stop-color="#6660A5"/>
<stop offset="0.93" stop-color="#6FBBD2"/>
<stop offset="1" stop-color="#70C7D8"/>
</linearGradient>
<linearGradient id="paint27_linear" x1="14505.3" y1="214080" x2="19005.3" y2="210525" gradientUnits="userSpaceOnUse">
<stop offset="0.02" stop-color="#F3A58B"/>
<stop offset="0.08" stop-color="#B0748F"/>
<stop offset="0.13" stop-color="#794C92"/>
<stop offset="0.16" stop-color="#633C93"/>
<stop offset="0.4" stop-color="#6660A5"/>
<stop offset="0.93" stop-color="#6FBBD2"/>
<stop offset="1" stop-color="#70C7D8"/>
</linearGradient>
<linearGradient id="paint28_linear" x1="4788.14" y1="303808" x2="8824.31" y2="295194" gradientUnits="userSpaceOnUse">
<stop offset="0.02" stop-color="#F3A58B"/>
<stop offset="0.08" stop-color="#B0748F"/>
<stop offset="0.13" stop-color="#794C92"/>
<stop offset="0.16" stop-color="#633C93"/>
<stop offset="0.4" stop-color="#6660A5"/>
<stop offset="0.93" stop-color="#6FBBD2"/>
<stop offset="1" stop-color="#70C7D8"/>
</linearGradient>
<linearGradient id="paint29_linear" x1="12607.4" y1="172363" x2="15402.7" y2="169406" gradientUnits="userSpaceOnUse">
<stop offset="0.02" stop-color="#F3A58B"/>
<stop offset="0.08" stop-color="#B0748F"/>
<stop offset="0.13" stop-color="#794C92"/>
<stop offset="0.16" stop-color="#633C93"/>
<stop offset="0.4" stop-color="#6660A5"/>
<stop offset="0.93" stop-color="#6FBBD2"/>
<stop offset="1" stop-color="#70C7D8"/>
</linearGradient>
<linearGradient id="paint30_linear" x1="28493" y1="291947" x2="22447.2" y2="288042" gradientUnits="userSpaceOnUse">
<stop offset="0.02" stop-color="#F3A58B"/>
<stop offset="0.08" stop-color="#B0748F"/>
<stop offset="0.13" stop-color="#794C92"/>
<stop offset="0.16" stop-color="#633C93"/>
<stop offset="0.4" stop-color="#6660A5"/>
<stop offset="0.93" stop-color="#6FBBD2"/>
<stop offset="1" stop-color="#70C7D8"/>
</linearGradient>
<linearGradient id="paint31_linear" x1="21775" y1="138011" x2="19914.7" y2="135705" gradientUnits="userSpaceOnUse">
<stop offset="0.02" stop-color="#F3A58B"/>
<stop offset="0.08" stop-color="#B0748F"/>
<stop offset="0.13" stop-color="#794C92"/>
<stop offset="0.16" stop-color="#633C93"/>
<stop offset="0.4" stop-color="#6660A5"/>
<stop offset="0.93" stop-color="#6FBBD2"/>
<stop offset="1" stop-color="#70C7D8"/>
</linearGradient>
<radialGradient id="paint32_radial" cx="0" cy="0" r="1" gradientUnits="userSpaceOnUse" gradientTransform="translate(288.058 175.84) scale(29.86)">
<stop stop-color="#633C93"/>
<stop offset="0.02" stop-color="#613B92"/>
<stop offset="0.34" stop-color="#4E2E84"/>
<stop offset="0.66" stop-color="#43277C"/>
<stop offset="1" stop-color="#3F2479"/>
</radialGradient>
<linearGradient id="paint33_linear" x1="12580.1" y1="595123" x2="40189.3" y2="623327" gradientUnits="userSpaceOnUse">
<stop offset="0.02" stop-color="#F3A58B"/>
<stop offset="0.08" stop-color="#B0748F"/>
<stop offset="0.13" stop-color="#794C92"/>
<stop offset="0.16" stop-color="#633C93"/>
<stop offset="0.4" stop-color="#6660A5"/>
<stop offset="0.93" stop-color="#6FBBD2"/>
<stop offset="1" stop-color="#70C7D8"/>
</linearGradient>
<linearGradient id="paint34_linear" x1="13854.3" y1="480852" x2="9078.77" y2="514770" gradientUnits="userSpaceOnUse">
<stop offset="0.02" stop-color="#F3A58B"/>
<stop offset="0.08" stop-color="#B0748F"/>
<stop offset="0.13" stop-color="#794C92"/>
<stop offset="0.16" stop-color="#633C93"/>
<stop offset="0.4" stop-color="#6660A5"/>
<stop offset="0.93" stop-color="#6FBBD2"/>
<stop offset="1" stop-color="#70C7D8"/>
</linearGradient>
<linearGradient id="paint35_linear" x1="22539" y1="414193" x2="35866.9" y2="434574" gradientUnits="userSpaceOnUse">
<stop offset="0.02" stop-color="#F3A58B"/>
<stop offset="0.08" stop-color="#B0748F"/>
<stop offset="0.13" stop-color="#794C92"/>
<stop offset="0.16" stop-color="#633C93"/>
<stop offset="0.4" stop-color="#6660A5"/>
<stop offset="0.93" stop-color="#6FBBD2"/>
<stop offset="1" stop-color="#70C7D8"/>
</linearGradient>
<linearGradient id="paint36_linear" x1="16468.1" y1="135181" x2="20265.8" y2="138993" gradientUnits="userSpaceOnUse">
<stop offset="0.02" stop-color="#F3A58B"/>
<stop offset="0.08" stop-color="#B0748F"/>
<stop offset="0.13" stop-color="#794C92"/>
<stop offset="0.16" stop-color="#633C93"/>
<stop offset="0.4" stop-color="#6660A5"/>
<stop offset="0.93" stop-color="#6FBBD2"/>
<stop offset="1" stop-color="#70C7D8"/>
</linearGradient>
<linearGradient id="paint37_linear" x1="15087.9" y1="441819" x2="29275.5" y2="461141" gradientUnits="userSpaceOnUse">
<stop offset="0.02" stop-color="#F3A58B"/>
<stop offset="0.08" stop-color="#B0748F"/>
<stop offset="0.13" stop-color="#794C92"/>
<stop offset="0.16" stop-color="#633C93"/>
<stop offset="0.4" stop-color="#6660A5"/>
<stop offset="0.93" stop-color="#6FBBD2"/>
<stop offset="1" stop-color="#70C7D8"/>
</linearGradient>
<linearGradient id="paint38_linear" x1="13411.9" y1="168988" x2="16059" y2="168988" gradientUnits="userSpaceOnUse">
<stop offset="0.02" stop-color="#F3A58B"/>
<stop offset="0.08" stop-color="#B0748F"/>
<stop offset="0.13" stop-color="#794C92"/>
<stop offset="0.16" stop-color="#633C93"/>
<stop offset="0.4" stop-color="#6660A5"/>
<stop offset="0.93" stop-color="#6FBBD2"/>
<stop offset="1" stop-color="#70C7D8"/>
</linearGradient>
<linearGradient id="paint39_linear" x1="36040.9" y1="405184" x2="21593.4" y2="422534" gradientUnits="userSpaceOnUse">
<stop offset="0.02" stop-color="#F3A58B"/>
<stop offset="0.08" stop-color="#B0748F"/>
<stop offset="0.13" stop-color="#794C92"/>
<stop offset="0.16" stop-color="#633C93"/>
<stop offset="0.4" stop-color="#6660A5"/>
<stop offset="0.93" stop-color="#6FBBD2"/>
<stop offset="1" stop-color="#70C7D8"/>
</linearGradient>
<linearGradient id="paint40_linear" x1="15299.2" y1="4044.46" x2="15290.2" y2="4173.15" gradientUnits="userSpaceOnUse">
<stop offset="0.02" stop-color="#F3A58B"/>
<stop offset="0.08" stop-color="#B0748F"/>
<stop offset="0.13" stop-color="#794C92"/>
<stop offset="0.16" stop-color="#633C93"/>
<stop offset="0.4" stop-color="#6660A5"/>
<stop offset="0.93" stop-color="#6FBBD2"/>
<stop offset="1" stop-color="#70C7D8"/>
</linearGradient>
<linearGradient id="paint41_linear" x1="26277.3" y1="234861" x2="20131" y2="241254" gradientUnits="userSpaceOnUse">
<stop offset="0.02" stop-color="#F3A58B"/>
<stop offset="0.08" stop-color="#B0748F"/>
<stop offset="0.13" stop-color="#794C92"/>
<stop offset="0.16" stop-color="#633C93"/>
<stop offset="0.4" stop-color="#6660A5"/>
<stop offset="0.93" stop-color="#6FBBD2"/>
<stop offset="1" stop-color="#70C7D8"/>
</linearGradient>
<linearGradient id="paint42_linear" x1="11174.8" y1="157885" x2="8853.81" y2="160177" gradientUnits="userSpaceOnUse">
<stop offset="0.02" stop-color="#F3A58B"/>
<stop offset="0.08" stop-color="#B0748F"/>
<stop offset="0.13" stop-color="#794C92"/>
<stop offset="0.16" stop-color="#633C93"/>
<stop offset="0.4" stop-color="#6660A5"/>
<stop offset="0.93" stop-color="#6FBBD2"/>
<stop offset="1" stop-color="#70C7D8"/>
</linearGradient>
<linearGradient id="paint43_linear" x1="33044.5" y1="158279" x2="28074.4" y2="163176" gradientUnits="userSpaceOnUse">
<stop offset="0.02" stop-color="#F3A58B"/>
<stop offset="0.08" stop-color="#B0748F"/>
<stop offset="0.13" stop-color="#794C92"/>
<stop offset="0.16" stop-color="#633C93"/>
<stop offset="0.4" stop-color="#6660A5"/>
<stop offset="0.93" stop-color="#6FBBD2"/>
<stop offset="1" stop-color="#70C7D8"/>
</linearGradient>
<linearGradient id="paint44_linear" x1="9547.4" y1="134738" x2="11379.3" y2="136589" gradientUnits="userSpaceOnUse">
<stop offset="0.02" stop-color="#F3A58B"/>
<stop offset="0.08" stop-color="#B0748F"/>
<stop offset="0.13" stop-color="#794C92"/>
<stop offset="0.16" stop-color="#633C93"/>
<stop offset="0.4" stop-color="#6660A5"/>
<stop offset="0.93" stop-color="#6FBBD2"/>
<stop offset="1" stop-color="#70C7D8"/>
</linearGradient>
<linearGradient id="paint45_linear" x1="627.886" y1="149005" x2="627.886" y2="152645" gradientUnits="userSpaceOnUse">
<stop offset="0.02" stop-color="#F3A58B"/>
<stop offset="0.08" stop-color="#B0748F"/>
<stop offset="0.13" stop-color="#794C92"/>
<stop offset="0.16" stop-color="#633C93"/>
<stop offset="0.4" stop-color="#6660A5"/>
<stop offset="0.93" stop-color="#6FBBD2"/>
<stop offset="1" stop-color="#70C7D8"/>
</linearGradient>
</defs>
</svg>
